<?xml version="1.0" encoding="utf-8" standalone="no"?>
<!DOCTYPE svg PUBLIC "-//W3C//DTD SVG 1.1//EN"
  "http://www.w3.org/Graphics/SVG/1.1/DTD/svg11.dtd">
<svg xmlns:xlink="http://www.w3.org/1999/xlink" width="352.315625pt" height="367.114375pt" viewBox="0 0 352.315625 367.114375" xmlns="http://www.w3.org/2000/svg" version="1.1">
 <metadata>
  <rdf:RDF xmlns:dc="http://purl.org/dc/elements/1.1/" xmlns:cc="http://creativecommons.org/ns#" xmlns:rdf="http://www.w3.org/1999/02/22-rdf-syntax-ns#">
   <cc:Work>
    <dc:type rdf:resource="http://purl.org/dc/dcmitype/StillImage"/>
    <dc:date>2022-11-24T16:20:04.779391</dc:date>
    <dc:format>image/svg+xml</dc:format>
    <dc:creator>
     <cc:Agent>
      <dc:title>Matplotlib v3.5.3, https://matplotlib.org/</dc:title>
     </cc:Agent>
    </dc:creator>
   </cc:Work>
  </rdf:RDF>
 </metadata>
 <defs>
  <style type="text/css">*{stroke-linejoin: round; stroke-linecap: butt}</style>
 </defs>
 <g id="figure_1">
  <g id="patch_1">
   <path d="M 0 367.114375 
L 352.315625 367.114375 
L 352.315625 0 
L 0 0 
z
" style="fill: #ffffff"/>
  </g>
  <g id="axes_1">
   <g id="patch_2">
    <path d="M 46.965625 329.558125 
L 345.115625 329.558125 
L 345.115625 22.318125 
L 46.965625 22.318125 
z
" style="fill: #ffffff"/>
   </g>
   <g id="patch_3">
    <path d="M 60.517898 329.558125 
L 65.035322 329.558125 
L 65.035322 327.581034 
L 60.517898 327.581034 
z
" clip-path="url(#p4409011ec5)" style="fill: #1f77b4; fill-opacity: 0.5; stroke: #000000; stroke-width: 0.465917; stroke-linejoin: miter"/>
   </g>
   <g id="patch_4">
    <path d="M 65.035322 329.558125 
L 69.552746 329.558125 
L 69.552746 325.603942 
L 65.035322 325.603942 
z
" clip-path="url(#p4409011ec5)" style="fill: #1f77b4; fill-opacity: 0.5; stroke: #000000; stroke-width: 0.465917; stroke-linejoin: miter"/>
   </g>
   <g id="patch_5">
    <path d="M 69.552746 329.558125 
L 74.07017 329.558125 
L 74.07017 321.649759 
L 69.552746 321.649759 
z
" clip-path="url(#p4409011ec5)" style="fill: #1f77b4; fill-opacity: 0.5; stroke: #000000; stroke-width: 0.465917; stroke-linejoin: miter"/>
   </g>
   <g id="patch_6">
    <path d="M 74.07017 329.558125 
L 78.587595 329.558125 
L 78.587595 309.787211 
L 74.07017 309.787211 
z
" clip-path="url(#p4409011ec5)" style="fill: #1f77b4; fill-opacity: 0.5; stroke: #000000; stroke-width: 0.465917; stroke-linejoin: miter"/>
   </g>
   <g id="patch_7">
    <path d="M 78.587595 329.558125 
L 83.105019 329.558125 
L 83.105019 327.581034 
L 78.587595 327.581034 
z
" clip-path="url(#p4409011ec5)" style="fill: #1f77b4; fill-opacity: 0.5; stroke: #000000; stroke-width: 0.465917; stroke-linejoin: miter"/>
   </g>
   <g id="patch_8">
    <path d="M 83.105019 329.558125 
L 87.622443 329.558125 
L 87.622443 311.764303 
L 83.105019 311.764303 
z
" clip-path="url(#p4409011ec5)" style="fill: #1f77b4; fill-opacity: 0.5; stroke: #000000; stroke-width: 0.465917; stroke-linejoin: miter"/>
   </g>
   <g id="patch_9">
    <path d="M 87.622443 329.558125 
L 92.139867 329.558125 
L 92.139867 321.649759 
L 87.622443 321.649759 
z
" clip-path="url(#p4409011ec5)" style="fill: #1f77b4; fill-opacity: 0.5; stroke: #000000; stroke-width: 0.465917; stroke-linejoin: miter"/>
   </g>
   <g id="patch_10">
    <path d="M 92.139867 329.558125 
L 96.657292 329.558125 
L 96.657292 313.741394 
L 92.139867 313.741394 
z
" clip-path="url(#p4409011ec5)" style="fill: #1f77b4; fill-opacity: 0.5; stroke: #000000; stroke-width: 0.465917; stroke-linejoin: miter"/>
   </g>
   <g id="patch_11">
    <path d="M 96.657292 329.558125 
L 101.174716 329.558125 
L 101.174716 315.718485 
L 96.657292 315.718485 
z
" clip-path="url(#p4409011ec5)" style="fill: #1f77b4; fill-opacity: 0.5; stroke: #000000; stroke-width: 0.465917; stroke-linejoin: miter"/>
   </g>
   <g id="patch_12">
    <path d="M 101.174716 329.558125 
L 105.69214 329.558125 
L 105.69214 313.741394 
L 101.174716 313.741394 
z
" clip-path="url(#p4409011ec5)" style="fill: #1f77b4; fill-opacity: 0.5; stroke: #000000; stroke-width: 0.465917; stroke-linejoin: miter"/>
   </g>
   <g id="patch_13">
    <path d="M 105.69214 329.558125 
L 110.209564 329.558125 
L 110.209564 327.581034 
L 105.69214 327.581034 
z
" clip-path="url(#p4409011ec5)" style="fill: #1f77b4; fill-opacity: 0.5; stroke: #000000; stroke-width: 0.465917; stroke-linejoin: miter"/>
   </g>
   <g id="patch_14">
    <path d="M 110.209564 329.558125 
L 114.726989 329.558125 
L 114.726989 301.878846 
L 110.209564 301.878846 
z
" clip-path="url(#p4409011ec5)" style="fill: #1f77b4; fill-opacity: 0.5; stroke: #000000; stroke-width: 0.465917; stroke-linejoin: miter"/>
   </g>
   <g id="patch_15">
    <path d="M 114.726989 329.558125 
L 119.244413 329.558125 
L 119.244413 315.718485 
L 114.726989 315.718485 
z
" clip-path="url(#p4409011ec5)" style="fill: #1f77b4; fill-opacity: 0.5; stroke: #000000; stroke-width: 0.465917; stroke-linejoin: miter"/>
   </g>
   <g id="patch_16">
    <path d="M 119.244413 329.558125 
L 123.761837 329.558125 
L 123.761837 309.787211 
L 119.244413 309.787211 
z
" clip-path="url(#p4409011ec5)" style="fill: #1f77b4; fill-opacity: 0.5; stroke: #000000; stroke-width: 0.465917; stroke-linejoin: miter"/>
   </g>
   <g id="patch_17">
    <path d="M 123.761837 329.558125 
L 128.279261 329.558125 
L 128.279261 311.764303 
L 123.761837 311.764303 
z
" clip-path="url(#p4409011ec5)" style="fill: #1f77b4; fill-opacity: 0.5; stroke: #000000; stroke-width: 0.465917; stroke-linejoin: miter"/>
   </g>
   <g id="patch_18">
    <path d="M 128.279261 329.558125 
L 132.796686 329.558125 
L 132.796686 295.947572 
L 128.279261 295.947572 
z
" clip-path="url(#p4409011ec5)" style="fill: #1f77b4; fill-opacity: 0.5; stroke: #000000; stroke-width: 0.465917; stroke-linejoin: miter"/>
   </g>
   <g id="patch_19">
    <path d="M 132.796686 329.558125 
L 137.31411 329.558125 
L 137.31411 286.062115 
L 132.796686 286.062115 
z
" clip-path="url(#p4409011ec5)" style="fill: #1f77b4; fill-opacity: 0.5; stroke: #000000; stroke-width: 0.465917; stroke-linejoin: miter"/>
   </g>
   <g id="patch_20">
    <path d="M 137.31411 329.558125 
L 141.831534 329.558125 
L 141.831534 313.741394 
L 137.31411 313.741394 
z
" clip-path="url(#p4409011ec5)" style="fill: #1f77b4; fill-opacity: 0.5; stroke: #000000; stroke-width: 0.465917; stroke-linejoin: miter"/>
   </g>
   <g id="patch_21">
    <path d="M 141.831534 329.558125 
L 146.348958 329.558125 
L 146.348958 290.016297 
L 141.831534 290.016297 
z
" clip-path="url(#p4409011ec5)" style="fill: #1f77b4; fill-opacity: 0.5; stroke: #000000; stroke-width: 0.465917; stroke-linejoin: miter"/>
   </g>
   <g id="patch_22">
    <path d="M 146.348958 329.558125 
L 150.866383 329.558125 
L 150.866383 284.085023 
L 146.348958 284.085023 
z
" clip-path="url(#p4409011ec5)" style="fill: #1f77b4; fill-opacity: 0.5; stroke: #000000; stroke-width: 0.465917; stroke-linejoin: miter"/>
   </g>
   <g id="patch_23">
    <path d="M 150.866383 329.558125 
L 155.383807 329.558125 
L 155.383807 232.680648 
L 150.866383 232.680648 
z
" clip-path="url(#p4409011ec5)" style="fill: #1f77b4; fill-opacity: 0.5; stroke: #000000; stroke-width: 0.465917; stroke-linejoin: miter"/>
   </g>
   <g id="patch_24">
    <path d="M 155.383807 329.558125 
L 159.901231 329.558125 
L 159.901231 290.016297 
L 155.383807 290.016297 
z
" clip-path="url(#p4409011ec5)" style="fill: #1f77b4; fill-opacity: 0.5; stroke: #000000; stroke-width: 0.465917; stroke-linejoin: miter"/>
   </g>
   <g id="patch_25">
    <path d="M 159.901231 329.558125 
L 164.418655 329.558125 
L 164.418655 173.367906 
L 159.901231 173.367906 
z
" clip-path="url(#p4409011ec5)" style="fill: #1f77b4; fill-opacity: 0.5; stroke: #000000; stroke-width: 0.465917; stroke-linejoin: miter"/>
   </g>
   <g id="patch_26">
    <path d="M 164.418655 329.558125 
L 168.93608 329.558125 
L 168.93608 195.115911 
L 164.418655 195.115911 
z
" clip-path="url(#p4409011ec5)" style="fill: #1f77b4; fill-opacity: 0.5; stroke: #000000; stroke-width: 0.465917; stroke-linejoin: miter"/>
   </g>
   <g id="patch_27">
    <path d="M 168.93608 329.558125 
L 173.453504 329.558125 
L 173.453504 123.940622 
L 168.93608 123.940622 
z
" clip-path="url(#p4409011ec5)" style="fill: #1f77b4; fill-opacity: 0.5; stroke: #000000; stroke-width: 0.465917; stroke-linejoin: miter"/>
   </g>
   <g id="patch_28">
    <path d="M 173.453504 329.558125 
L 177.970928 329.558125 
L 177.970928 40.902784 
L 173.453504 40.902784 
z
" clip-path="url(#p4409011ec5)" style="fill: #1f77b4; fill-opacity: 0.5; stroke: #000000; stroke-width: 0.465917; stroke-linejoin: miter"/>
   </g>
   <g id="patch_29">
    <path d="M 177.970928 329.558125 
L 182.488352 329.558125 
L 182.488352 36.948601 
L 177.970928 36.948601 
z
" clip-path="url(#p4409011ec5)" style="fill: #1f77b4; fill-opacity: 0.5; stroke: #000000; stroke-width: 0.465917; stroke-linejoin: miter"/>
   </g>
   <g id="patch_30">
    <path d="M 182.488352 329.558125 
L 187.005777 329.558125 
L 187.005777 54.742424 
L 182.488352 54.742424 
z
" clip-path="url(#p4409011ec5)" style="fill: #1f77b4; fill-opacity: 0.5; stroke: #000000; stroke-width: 0.465917; stroke-linejoin: miter"/>
   </g>
   <g id="patch_31">
    <path d="M 187.005777 329.558125 
L 191.523201 329.558125 
L 191.523201 74.513337 
L 187.005777 74.513337 
z
" clip-path="url(#p4409011ec5)" style="fill: #1f77b4; fill-opacity: 0.5; stroke: #000000; stroke-width: 0.465917; stroke-linejoin: miter"/>
   </g>
   <g id="patch_32">
    <path d="M 191.523201 329.558125 
L 196.040625 329.558125 
L 196.040625 121.96353 
L 191.523201 121.96353 
z
" clip-path="url(#p4409011ec5)" style="fill: #1f77b4; fill-opacity: 0.5; stroke: #000000; stroke-width: 0.465917; stroke-linejoin: miter"/>
   </g>
   <g id="patch_33">
    <path d="M 196.040625 329.558125 
L 200.558049 329.558125 
L 200.558049 189.184637 
L 196.040625 189.184637 
z
" clip-path="url(#p4409011ec5)" style="fill: #1f77b4; fill-opacity: 0.5; stroke: #000000; stroke-width: 0.465917; stroke-linejoin: miter"/>
   </g>
   <g id="patch_34">
    <path d="M 200.558049 329.558125 
L 205.075473 329.558125 
L 205.075473 205.001368 
L 200.558049 205.001368 
z
" clip-path="url(#p4409011ec5)" style="fill: #1f77b4; fill-opacity: 0.5; stroke: #000000; stroke-width: 0.465917; stroke-linejoin: miter"/>
   </g>
   <g id="patch_35">
    <path d="M 205.075473 329.558125 
L 209.592898 329.558125 
L 209.592898 260.359927 
L 205.075473 260.359927 
z
" clip-path="url(#p4409011ec5)" style="fill: #1f77b4; fill-opacity: 0.5; stroke: #000000; stroke-width: 0.465917; stroke-linejoin: miter"/>
   </g>
   <g id="patch_36">
    <path d="M 209.592898 329.558125 
L 214.110322 329.558125 
L 214.110322 272.222475 
L 209.592898 272.222475 
z
" clip-path="url(#p4409011ec5)" style="fill: #1f77b4; fill-opacity: 0.5; stroke: #000000; stroke-width: 0.465917; stroke-linejoin: miter"/>
   </g>
   <g id="patch_37">
    <path d="M 214.110322 329.558125 
L 218.627746 329.558125 
L 218.627746 284.085023 
L 214.110322 284.085023 
z
" clip-path="url(#p4409011ec5)" style="fill: #1f77b4; fill-opacity: 0.5; stroke: #000000; stroke-width: 0.465917; stroke-linejoin: miter"/>
   </g>
   <g id="patch_38">
    <path d="M 218.627746 329.558125 
L 223.14517 329.558125 
L 223.14517 311.764303 
L 218.627746 311.764303 
z
" clip-path="url(#p4409011ec5)" style="fill: #1f77b4; fill-opacity: 0.5; stroke: #000000; stroke-width: 0.465917; stroke-linejoin: miter"/>
   </g>
   <g id="patch_39">
    <path d="M 223.14517 329.558125 
L 227.662595 329.558125 
L 227.662595 317.695577 
L 223.14517 317.695577 
z
" clip-path="url(#p4409011ec5)" style="fill: #1f77b4; fill-opacity: 0.5; stroke: #000000; stroke-width: 0.465917; stroke-linejoin: miter"/>
   </g>
   <g id="patch_40">
    <path d="M 227.662595 329.558125 
L 232.180019 329.558125 
L 232.180019 305.833028 
L 227.662595 305.833028 
z
" clip-path="url(#p4409011ec5)" style="fill: #1f77b4; fill-opacity: 0.5; stroke: #000000; stroke-width: 0.465917; stroke-linejoin: miter"/>
   </g>
   <g id="patch_41">
    <path d="M 232.180019 329.558125 
L 236.697443 329.558125 
L 236.697443 321.649759 
L 232.180019 321.649759 
z
" clip-path="url(#p4409011ec5)" style="fill: #1f77b4; fill-opacity: 0.5; stroke: #000000; stroke-width: 0.465917; stroke-linejoin: miter"/>
   </g>
   <g id="patch_42">
    <path d="M 236.697443 329.558125 
L 241.214867 329.558125 
L 241.214867 315.718485 
L 236.697443 315.718485 
z
" clip-path="url(#p4409011ec5)" style="fill: #1f77b4; fill-opacity: 0.5; stroke: #000000; stroke-width: 0.465917; stroke-linejoin: miter"/>
   </g>
   <g id="patch_43">
    <path d="M 241.214867 329.558125 
L 245.732292 329.558125 
L 245.732292 323.626851 
L 241.214867 323.626851 
z
" clip-path="url(#p4409011ec5)" style="fill: #1f77b4; fill-opacity: 0.5; stroke: #000000; stroke-width: 0.465917; stroke-linejoin: miter"/>
   </g>
   <g id="patch_44">
    <path d="M 245.732292 329.558125 
L 250.249716 329.558125 
L 250.249716 325.603942 
L 245.732292 325.603942 
z
" clip-path="url(#p4409011ec5)" style="fill: #1f77b4; fill-opacity: 0.5; stroke: #000000; stroke-width: 0.465917; stroke-linejoin: miter"/>
   </g>
   <g id="patch_45">
    <path d="M 250.249716 329.558125 
L 254.76714 329.558125 
L 254.76714 327.581034 
L 250.249716 327.581034 
z
" clip-path="url(#p4409011ec5)" style="fill: #1f77b4; fill-opacity: 0.5; stroke: #000000; stroke-width: 0.465917; stroke-linejoin: miter"/>
   </g>
   <g id="patch_46">
    <path d="M 254.76714 329.558125 
L 259.284564 329.558125 
L 259.284564 323.626851 
L 254.76714 323.626851 
z
" clip-path="url(#p4409011ec5)" style="fill: #1f77b4; fill-opacity: 0.5; stroke: #000000; stroke-width: 0.465917; stroke-linejoin: miter"/>
   </g>
   <g id="patch_47">
    <path d="M 259.284564 329.558125 
L 263.801989 329.558125 
L 263.801989 323.626851 
L 259.284564 323.626851 
z
" clip-path="url(#p4409011ec5)" style="fill: #1f77b4; fill-opacity: 0.5; stroke: #000000; stroke-width: 0.465917; stroke-linejoin: miter"/>
   </g>
   <g id="patch_48">
    <path d="M 263.801989 329.558125 
L 268.319413 329.558125 
L 268.319413 327.581034 
L 263.801989 327.581034 
z
" clip-path="url(#p4409011ec5)" style="fill: #1f77b4; fill-opacity: 0.5; stroke: #000000; stroke-width: 0.465917; stroke-linejoin: miter"/>
   </g>
   <g id="patch_49">
    <path d="M 268.319413 329.558125 
L 272.836837 329.558125 
L 272.836837 329.558125 
L 268.319413 329.558125 
z
" clip-path="url(#p4409011ec5)" style="fill: #1f77b4; fill-opacity: 0.5; stroke: #000000; stroke-width: 0.465917; stroke-linejoin: miter"/>
   </g>
   <g id="patch_50">
    <path d="M 272.836837 329.558125 
L 277.354261 329.558125 
L 277.354261 325.603942 
L 272.836837 325.603942 
z
" clip-path="url(#p4409011ec5)" style="fill: #1f77b4; fill-opacity: 0.5; stroke: #000000; stroke-width: 0.465917; stroke-linejoin: miter"/>
   </g>
   <g id="patch_51">
    <path d="M 277.354261 329.558125 
L 281.871686 329.558125 
L 281.871686 327.581034 
L 277.354261 327.581034 
z
" clip-path="url(#p4409011ec5)" style="fill: #1f77b4; fill-opacity: 0.5; stroke: #000000; stroke-width: 0.465917; stroke-linejoin: miter"/>
   </g>
   <g id="patch_52">
    <path d="M 281.871686 329.558125 
L 286.38911 329.558125 
L 286.38911 323.626851 
L 281.871686 323.626851 
z
" clip-path="url(#p4409011ec5)" style="fill: #1f77b4; fill-opacity: 0.5; stroke: #000000; stroke-width: 0.465917; stroke-linejoin: miter"/>
   </g>
   <g id="patch_53">
    <path d="M 286.38911 329.558125 
L 290.906534 329.558125 
L 290.906534 327.581034 
L 286.38911 327.581034 
z
" clip-path="url(#p4409011ec5)" style="fill: #1f77b4; fill-opacity: 0.5; stroke: #000000; stroke-width: 0.465917; stroke-linejoin: miter"/>
   </g>
   <g id="patch_54">
    <path d="M 290.906534 329.558125 
L 295.423958 329.558125 
L 295.423958 329.558125 
L 290.906534 329.558125 
z
" clip-path="url(#p4409011ec5)" style="fill: #1f77b4; fill-opacity: 0.5; stroke: #000000; stroke-width: 0.465917; stroke-linejoin: miter"/>
   </g>
   <g id="patch_55">
    <path d="M 295.423958 329.558125 
L 299.941383 329.558125 
L 299.941383 329.558125 
L 295.423958 329.558125 
z
" clip-path="url(#p4409011ec5)" style="fill: #1f77b4; fill-opacity: 0.5; stroke: #000000; stroke-width: 0.465917; stroke-linejoin: miter"/>
   </g>
   <g id="patch_56">
    <path d="M 299.941383 329.558125 
L 304.458807 329.558125 
L 304.458807 327.581034 
L 299.941383 327.581034 
z
" clip-path="url(#p4409011ec5)" style="fill: #1f77b4; fill-opacity: 0.5; stroke: #000000; stroke-width: 0.465917; stroke-linejoin: miter"/>
   </g>
   <g id="patch_57">
    <path d="M 304.458807 329.558125 
L 308.976231 329.558125 
L 308.976231 329.558125 
L 304.458807 329.558125 
z
" clip-path="url(#p4409011ec5)" style="fill: #1f77b4; fill-opacity: 0.5; stroke: #000000; stroke-width: 0.465917; stroke-linejoin: miter"/>
   </g>
   <g id="patch_58">
    <path d="M 308.976231 329.558125 
L 313.493655 329.558125 
L 313.493655 329.558125 
L 308.976231 329.558125 
z
" clip-path="url(#p4409011ec5)" style="fill: #1f77b4; fill-opacity: 0.5; stroke: #000000; stroke-width: 0.465917; stroke-linejoin: miter"/>
   </g>
   <g id="patch_59">
    <path d="M 313.493655 329.558125 
L 318.01108 329.558125 
L 318.01108 329.558125 
L 313.493655 329.558125 
z
" clip-path="url(#p4409011ec5)" style="fill: #1f77b4; fill-opacity: 0.5; stroke: #000000; stroke-width: 0.465917; stroke-linejoin: miter"/>
   </g>
   <g id="patch_60">
    <path d="M 318.01108 329.558125 
L 322.528504 329.558125 
L 322.528504 329.558125 
L 318.01108 329.558125 
z
" clip-path="url(#p4409011ec5)" style="fill: #1f77b4; fill-opacity: 0.5; stroke: #000000; stroke-width: 0.465917; stroke-linejoin: miter"/>
   </g>
   <g id="patch_61">
    <path d="M 322.528504 329.558125 
L 327.045928 329.558125 
L 327.045928 329.558125 
L 322.528504 329.558125 
z
" clip-path="url(#p4409011ec5)" style="fill: #1f77b4; fill-opacity: 0.5; stroke: #000000; stroke-width: 0.465917; stroke-linejoin: miter"/>
   </g>
   <g id="patch_62">
    <path d="M 327.045928 329.558125 
L 331.563352 329.558125 
L 331.563352 327.581034 
L 327.045928 327.581034 
z
" clip-path="url(#p4409011ec5)" style="fill: #1f77b4; fill-opacity: 0.5; stroke: #000000; stroke-width: 0.465917; stroke-linejoin: miter"/>
   </g>
   <g id="matplotlib.axis_1">
    <g id="xtick_1">
     <g id="line2d_1">
      <defs>
       <path id="maf208b44db" d="M 0 0 
L 0 3.5 
" style="stroke: #000000; stroke-width: 0.8"/>
      </defs>
      <g>
       <use xlink:href="#maf208b44db" x="50.234325" y="329.558125" style="stroke: #000000; stroke-width: 0.8"/>
      </g>
     </g>
     <g id="text_1">
      <!-- 7 -->
      <g transform="translate(47.053075 344.156562)scale(0.1 -0.1)">
       <defs>
        <path id="DejaVuSans-37" d="M 525 4666 
L 3525 4666 
L 3525 4397 
L 1831 0 
L 1172 0 
L 2766 4134 
L 525 4134 
L 525 4666 
z
" transform="scale(0.015625)"/>
       </defs>
       <use xlink:href="#DejaVuSans-37"/>
      </g>
     </g>
    </g>
    <g id="xtick_2">
     <g id="line2d_2">
      <g>
       <use xlink:href="#maf208b44db" x="110.683423" y="329.558125" style="stroke: #000000; stroke-width: 0.8"/>
      </g>
     </g>
     <g id="text_2">
      <!-- 8 -->
      <g transform="translate(107.502173 344.156562)scale(0.1 -0.1)">
       <defs>
        <path id="DejaVuSans-38" d="M 2034 2216 
Q 1584 2216 1326 1975 
Q 1069 1734 1069 1313 
Q 1069 891 1326 650 
Q 1584 409 2034 409 
Q 2484 409 2743 651 
Q 3003 894 3003 1313 
Q 3003 1734 2745 1975 
Q 2488 2216 2034 2216 
z
M 1403 2484 
Q 997 2584 770 2862 
Q 544 3141 544 3541 
Q 544 4100 942 4425 
Q 1341 4750 2034 4750 
Q 2731 4750 3128 4425 
Q 3525 4100 3525 3541 
Q 3525 3141 3298 2862 
Q 3072 2584 2669 2484 
Q 3125 2378 3379 2068 
Q 3634 1759 3634 1313 
Q 3634 634 3220 271 
Q 2806 -91 2034 -91 
Q 1263 -91 848 271 
Q 434 634 434 1313 
Q 434 1759 690 2068 
Q 947 2378 1403 2484 
z
M 1172 3481 
Q 1172 3119 1398 2916 
Q 1625 2713 2034 2713 
Q 2441 2713 2670 2916 
Q 2900 3119 2900 3481 
Q 2900 3844 2670 4047 
Q 2441 4250 2034 4250 
Q 1625 4250 1398 4047 
Q 1172 3844 1172 3481 
z
" transform="scale(0.015625)"/>
       </defs>
       <use xlink:href="#DejaVuSans-38"/>
      </g>
     </g>
    </g>
    <g id="xtick_3">
     <g id="line2d_3">
      <g>
       <use xlink:href="#maf208b44db" x="171.132521" y="329.558125" style="stroke: #000000; stroke-width: 0.8"/>
      </g>
     </g>
     <g id="text_3">
      <!-- 9 -->
      <g transform="translate(167.951271 344.156562)scale(0.1 -0.1)">
       <defs>
        <path id="DejaVuSans-39" d="M 703 97 
L 703 672 
Q 941 559 1184 500 
Q 1428 441 1663 441 
Q 2288 441 2617 861 
Q 2947 1281 2994 2138 
Q 2813 1869 2534 1725 
Q 2256 1581 1919 1581 
Q 1219 1581 811 2004 
Q 403 2428 403 3163 
Q 403 3881 828 4315 
Q 1253 4750 1959 4750 
Q 2769 4750 3195 4129 
Q 3622 3509 3622 2328 
Q 3622 1225 3098 567 
Q 2575 -91 1691 -91 
Q 1453 -91 1209 -44 
Q 966 3 703 97 
z
M 1959 2075 
Q 2384 2075 2632 2365 
Q 2881 2656 2881 3163 
Q 2881 3666 2632 3958 
Q 2384 4250 1959 4250 
Q 1534 4250 1286 3958 
Q 1038 3666 1038 3163 
Q 1038 2656 1286 2365 
Q 1534 2075 1959 2075 
z
" transform="scale(0.015625)"/>
       </defs>
       <use xlink:href="#DejaVuSans-39"/>
      </g>
     </g>
    </g>
    <g id="xtick_4">
     <g id="line2d_4">
      <g>
       <use xlink:href="#maf208b44db" x="231.581619" y="329.558125" style="stroke: #000000; stroke-width: 0.8"/>
      </g>
     </g>
     <g id="text_4">
      <!-- 10 -->
      <g transform="translate(225.219119 344.156562)scale(0.1 -0.1)">
       <defs>
        <path id="DejaVuSans-31" d="M 794 531 
L 1825 531 
L 1825 4091 
L 703 3866 
L 703 4441 
L 1819 4666 
L 2450 4666 
L 2450 531 
L 3481 531 
L 3481 0 
L 794 0 
L 794 531 
z
" transform="scale(0.015625)"/>
        <path id="DejaVuSans-30" d="M 2034 4250 
Q 1547 4250 1301 3770 
Q 1056 3291 1056 2328 
Q 1056 1369 1301 889 
Q 1547 409 2034 409 
Q 2525 409 2770 889 
Q 3016 1369 3016 2328 
Q 3016 3291 2770 3770 
Q 2525 4250 2034 4250 
z
M 2034 4750 
Q 2819 4750 3233 4129 
Q 3647 3509 3647 2328 
Q 3647 1150 3233 529 
Q 2819 -91 2034 -91 
Q 1250 -91 836 529 
Q 422 1150 422 2328 
Q 422 3509 836 4129 
Q 1250 4750 2034 4750 
z
" transform="scale(0.015625)"/>
       </defs>
       <use xlink:href="#DejaVuSans-31"/>
       <use xlink:href="#DejaVuSans-30" x="63.623047"/>
      </g>
     </g>
    </g>
    <g id="xtick_5">
     <g id="line2d_5">
      <g>
       <use xlink:href="#maf208b44db" x="292.030717" y="329.558125" style="stroke: #000000; stroke-width: 0.8"/>
      </g>
     </g>
     <g id="text_5">
      <!-- 11 -->
      <g transform="translate(285.668217 344.156562)scale(0.1 -0.1)">
       <use xlink:href="#DejaVuSans-31"/>
       <use xlink:href="#DejaVuSans-31" x="63.623047"/>
      </g>
     </g>
    </g>
    <g id="text_6">
     <!-- LotArea -->
     <g transform="translate(176.81875 357.834687)scale(0.1 -0.1)">
      <defs>
       <path id="DejaVuSans-4c" d="M 628 4666 
L 1259 4666 
L 1259 531 
L 3531 531 
L 3531 0 
L 628 0 
L 628 4666 
z
" transform="scale(0.015625)"/>
       <path id="DejaVuSans-6f" d="M 1959 3097 
Q 1497 3097 1228 2736 
Q 959 2375 959 1747 
Q 959 1119 1226 758 
Q 1494 397 1959 397 
Q 2419 397 2687 759 
Q 2956 1122 2956 1747 
Q 2956 2369 2687 2733 
Q 2419 3097 1959 3097 
z
M 1959 3584 
Q 2709 3584 3137 3096 
Q 3566 2609 3566 1747 
Q 3566 888 3137 398 
Q 2709 -91 1959 -91 
Q 1206 -91 779 398 
Q 353 888 353 1747 
Q 353 2609 779 3096 
Q 1206 3584 1959 3584 
z
" transform="scale(0.015625)"/>
       <path id="DejaVuSans-74" d="M 1172 4494 
L 1172 3500 
L 2356 3500 
L 2356 3053 
L 1172 3053 
L 1172 1153 
Q 1172 725 1289 603 
Q 1406 481 1766 481 
L 2356 481 
L 2356 0 
L 1766 0 
Q 1100 0 847 248 
Q 594 497 594 1153 
L 594 3053 
L 172 3053 
L 172 3500 
L 594 3500 
L 594 4494 
L 1172 4494 
z
" transform="scale(0.015625)"/>
       <path id="DejaVuSans-41" d="M 2188 4044 
L 1331 1722 
L 3047 1722 
L 2188 4044 
z
M 1831 4666 
L 2547 4666 
L 4325 0 
L 3669 0 
L 3244 1197 
L 1141 1197 
L 716 0 
L 50 0 
L 1831 4666 
z
" transform="scale(0.015625)"/>
       <path id="DejaVuSans-72" d="M 2631 2963 
Q 2534 3019 2420 3045 
Q 2306 3072 2169 3072 
Q 1681 3072 1420 2755 
Q 1159 2438 1159 1844 
L 1159 0 
L 581 0 
L 581 3500 
L 1159 3500 
L 1159 2956 
Q 1341 3275 1631 3429 
Q 1922 3584 2338 3584 
Q 2397 3584 2469 3576 
Q 2541 3569 2628 3553 
L 2631 2963 
z
" transform="scale(0.015625)"/>
       <path id="DejaVuSans-65" d="M 3597 1894 
L 3597 1613 
L 953 1613 
Q 991 1019 1311 708 
Q 1631 397 2203 397 
Q 2534 397 2845 478 
Q 3156 559 3463 722 
L 3463 178 
Q 3153 47 2828 -22 
Q 2503 -91 2169 -91 
Q 1331 -91 842 396 
Q 353 884 353 1716 
Q 353 2575 817 3079 
Q 1281 3584 2069 3584 
Q 2775 3584 3186 3129 
Q 3597 2675 3597 1894 
z
M 3022 2063 
Q 3016 2534 2758 2815 
Q 2500 3097 2075 3097 
Q 1594 3097 1305 2825 
Q 1016 2553 972 2059 
L 3022 2063 
z
" transform="scale(0.015625)"/>
       <path id="DejaVuSans-61" d="M 2194 1759 
Q 1497 1759 1228 1600 
Q 959 1441 959 1056 
Q 959 750 1161 570 
Q 1363 391 1709 391 
Q 2188 391 2477 730 
Q 2766 1069 2766 1631 
L 2766 1759 
L 2194 1759 
z
M 3341 1997 
L 3341 0 
L 2766 0 
L 2766 531 
Q 2569 213 2275 61 
Q 1981 -91 1556 -91 
Q 1019 -91 701 211 
Q 384 513 384 1019 
Q 384 1609 779 1909 
Q 1175 2209 1959 2209 
L 2766 2209 
L 2766 2266 
Q 2766 2663 2505 2880 
Q 2244 3097 1772 3097 
Q 1472 3097 1187 3025 
Q 903 2953 641 2809 
L 641 3341 
Q 956 3463 1253 3523 
Q 1550 3584 1831 3584 
Q 2591 3584 2966 3190 
Q 3341 2797 3341 1997 
z
" transform="scale(0.015625)"/>
      </defs>
      <use xlink:href="#DejaVuSans-4c"/>
      <use xlink:href="#DejaVuSans-6f" x="53.962891"/>
      <use xlink:href="#DejaVuSans-74" x="115.144531"/>
      <use xlink:href="#DejaVuSans-41" x="154.353516"/>
      <use xlink:href="#DejaVuSans-72" x="222.761719"/>
      <use xlink:href="#DejaVuSans-65" x="261.625"/>
      <use xlink:href="#DejaVuSans-61" x="323.148438"/>
     </g>
    </g>
   </g>
   <g id="matplotlib.axis_2">
    <g id="ytick_1">
     <g id="line2d_6">
      <defs>
       <path id="m4d3167ad73" d="M 0 0 
L -3.5 0 
" style="stroke: #000000; stroke-width: 0.8"/>
      </defs>
      <g>
       <use xlink:href="#m4d3167ad73" x="46.965625" y="329.558125" style="stroke: #000000; stroke-width: 0.8"/>
      </g>
     </g>
     <g id="text_7">
      <!-- 0 -->
      <g transform="translate(33.603125 333.357344)scale(0.1 -0.1)">
       <use xlink:href="#DejaVuSans-30"/>
      </g>
     </g>
    </g>
    <g id="ytick_2">
     <g id="line2d_7">
      <g>
       <use xlink:href="#m4d3167ad73" x="46.965625" y="290.016297" style="stroke: #000000; stroke-width: 0.8"/>
      </g>
     </g>
     <g id="text_8">
      <!-- 20 -->
      <g transform="translate(27.240625 293.815516)scale(0.1 -0.1)">
       <defs>
        <path id="DejaVuSans-32" d="M 1228 531 
L 3431 531 
L 3431 0 
L 469 0 
L 469 531 
Q 828 903 1448 1529 
Q 2069 2156 2228 2338 
Q 2531 2678 2651 2914 
Q 2772 3150 2772 3378 
Q 2772 3750 2511 3984 
Q 2250 4219 1831 4219 
Q 1534 4219 1204 4116 
Q 875 4013 500 3803 
L 500 4441 
Q 881 4594 1212 4672 
Q 1544 4750 1819 4750 
Q 2544 4750 2975 4387 
Q 3406 4025 3406 3419 
Q 3406 3131 3298 2873 
Q 3191 2616 2906 2266 
Q 2828 2175 2409 1742 
Q 1991 1309 1228 531 
z
" transform="scale(0.015625)"/>
       </defs>
       <use xlink:href="#DejaVuSans-32"/>
       <use xlink:href="#DejaVuSans-30" x="63.623047"/>
      </g>
     </g>
    </g>
    <g id="ytick_3">
     <g id="line2d_8">
      <g>
       <use xlink:href="#m4d3167ad73" x="46.965625" y="250.47447" style="stroke: #000000; stroke-width: 0.8"/>
      </g>
     </g>
     <g id="text_9">
      <!-- 40 -->
      <g transform="translate(27.240625 254.273689)scale(0.1 -0.1)">
       <defs>
        <path id="DejaVuSans-34" d="M 2419 4116 
L 825 1625 
L 2419 1625 
L 2419 4116 
z
M 2253 4666 
L 3047 4666 
L 3047 1625 
L 3713 1625 
L 3713 1100 
L 3047 1100 
L 3047 0 
L 2419 0 
L 2419 1100 
L 313 1100 
L 313 1709 
L 2253 4666 
z
" transform="scale(0.015625)"/>
       </defs>
       <use xlink:href="#DejaVuSans-34"/>
       <use xlink:href="#DejaVuSans-30" x="63.623047"/>
      </g>
     </g>
    </g>
    <g id="ytick_4">
     <g id="line2d_9">
      <g>
       <use xlink:href="#m4d3167ad73" x="46.965625" y="210.932642" style="stroke: #000000; stroke-width: 0.8"/>
      </g>
     </g>
     <g id="text_10">
      <!-- 60 -->
      <g transform="translate(27.240625 214.731861)scale(0.1 -0.1)">
       <defs>
        <path id="DejaVuSans-36" d="M 2113 2584 
Q 1688 2584 1439 2293 
Q 1191 2003 1191 1497 
Q 1191 994 1439 701 
Q 1688 409 2113 409 
Q 2538 409 2786 701 
Q 3034 994 3034 1497 
Q 3034 2003 2786 2293 
Q 2538 2584 2113 2584 
z
M 3366 4563 
L 3366 3988 
Q 3128 4100 2886 4159 
Q 2644 4219 2406 4219 
Q 1781 4219 1451 3797 
Q 1122 3375 1075 2522 
Q 1259 2794 1537 2939 
Q 1816 3084 2150 3084 
Q 2853 3084 3261 2657 
Q 3669 2231 3669 1497 
Q 3669 778 3244 343 
Q 2819 -91 2113 -91 
Q 1303 -91 875 529 
Q 447 1150 447 2328 
Q 447 3434 972 4092 
Q 1497 4750 2381 4750 
Q 2619 4750 2861 4703 
Q 3103 4656 3366 4563 
z
" transform="scale(0.015625)"/>
       </defs>
       <use xlink:href="#DejaVuSans-36"/>
       <use xlink:href="#DejaVuSans-30" x="63.623047"/>
      </g>
     </g>
    </g>
    <g id="ytick_5">
     <g id="line2d_10">
      <g>
       <use xlink:href="#m4d3167ad73" x="46.965625" y="171.390815" style="stroke: #000000; stroke-width: 0.8"/>
      </g>
     </g>
     <g id="text_11">
      <!-- 80 -->
      <g transform="translate(27.240625 175.190034)scale(0.1 -0.1)">
       <use xlink:href="#DejaVuSans-38"/>
       <use xlink:href="#DejaVuSans-30" x="63.623047"/>
      </g>
     </g>
    </g>
    <g id="ytick_6">
     <g id="line2d_11">
      <g>
       <use xlink:href="#m4d3167ad73" x="46.965625" y="131.848987" style="stroke: #000000; stroke-width: 0.8"/>
      </g>
     </g>
     <g id="text_12">
      <!-- 100 -->
      <g transform="translate(20.878125 135.648206)scale(0.1 -0.1)">
       <use xlink:href="#DejaVuSans-31"/>
       <use xlink:href="#DejaVuSans-30" x="63.623047"/>
       <use xlink:href="#DejaVuSans-30" x="127.246094"/>
      </g>
     </g>
    </g>
    <g id="ytick_7">
     <g id="line2d_12">
      <g>
       <use xlink:href="#m4d3167ad73" x="46.965625" y="92.30716" style="stroke: #000000; stroke-width: 0.8"/>
      </g>
     </g>
     <g id="text_13">
      <!-- 120 -->
      <g transform="translate(20.878125 96.106378)scale(0.1 -0.1)">
       <use xlink:href="#DejaVuSans-31"/>
       <use xlink:href="#DejaVuSans-32" x="63.623047"/>
       <use xlink:href="#DejaVuSans-30" x="127.246094"/>
      </g>
     </g>
    </g>
    <g id="ytick_8">
     <g id="line2d_13">
      <g>
       <use xlink:href="#m4d3167ad73" x="46.965625" y="52.765332" style="stroke: #000000; stroke-width: 0.8"/>
      </g>
     </g>
     <g id="text_14">
      <!-- 140 -->
      <g transform="translate(20.878125 56.564551)scale(0.1 -0.1)">
       <use xlink:href="#DejaVuSans-31"/>
       <use xlink:href="#DejaVuSans-34" x="63.623047"/>
       <use xlink:href="#DejaVuSans-30" x="127.246094"/>
      </g>
     </g>
    </g>
    <g id="text_15">
     <!-- Count -->
     <g transform="translate(14.798438 190.786562)rotate(-90)scale(0.1 -0.1)">
      <defs>
       <path id="DejaVuSans-43" d="M 4122 4306 
L 4122 3641 
Q 3803 3938 3442 4084 
Q 3081 4231 2675 4231 
Q 1875 4231 1450 3742 
Q 1025 3253 1025 2328 
Q 1025 1406 1450 917 
Q 1875 428 2675 428 
Q 3081 428 3442 575 
Q 3803 722 4122 1019 
L 4122 359 
Q 3791 134 3420 21 
Q 3050 -91 2638 -91 
Q 1578 -91 968 557 
Q 359 1206 359 2328 
Q 359 3453 968 4101 
Q 1578 4750 2638 4750 
Q 3056 4750 3426 4639 
Q 3797 4528 4122 4306 
z
" transform="scale(0.015625)"/>
       <path id="DejaVuSans-75" d="M 544 1381 
L 544 3500 
L 1119 3500 
L 1119 1403 
Q 1119 906 1312 657 
Q 1506 409 1894 409 
Q 2359 409 2629 706 
Q 2900 1003 2900 1516 
L 2900 3500 
L 3475 3500 
L 3475 0 
L 2900 0 
L 2900 538 
Q 2691 219 2414 64 
Q 2138 -91 1772 -91 
Q 1169 -91 856 284 
Q 544 659 544 1381 
z
M 1991 3584 
L 1991 3584 
z
" transform="scale(0.015625)"/>
       <path id="DejaVuSans-6e" d="M 3513 2113 
L 3513 0 
L 2938 0 
L 2938 2094 
Q 2938 2591 2744 2837 
Q 2550 3084 2163 3084 
Q 1697 3084 1428 2787 
Q 1159 2491 1159 1978 
L 1159 0 
L 581 0 
L 581 3500 
L 1159 3500 
L 1159 2956 
Q 1366 3272 1645 3428 
Q 1925 3584 2291 3584 
Q 2894 3584 3203 3211 
Q 3513 2838 3513 2113 
z
" transform="scale(0.015625)"/>
      </defs>
      <use xlink:href="#DejaVuSans-43"/>
      <use xlink:href="#DejaVuSans-6f" x="69.824219"/>
      <use xlink:href="#DejaVuSans-75" x="131.005859"/>
      <use xlink:href="#DejaVuSans-6e" x="194.384766"/>
      <use xlink:href="#DejaVuSans-74" x="257.763672"/>
     </g>
    </g>
   </g>
   <g id="line2d_14">
    <path d="M 60.517898 327.398616 
L 63.241973 326.204363 
L 65.966048 324.690103 
L 71.414197 321.398089 
L 74.138272 320.115219 
L 76.862347 319.271228 
L 79.586422 318.800368 
L 89.120684 317.695494 
L 95.930872 316.700701 
L 98.654947 316.531262 
L 104.103096 316.390302 
L 106.827171 315.993645 
L 109.551246 315.173631 
L 112.275321 314.011549 
L 116.361434 311.98947 
L 119.085509 310.460754 
L 121.809583 308.567848 
L 124.533658 306.18065 
L 131.343846 299.529422 
L 134.067921 297.436951 
L 138.154033 294.500096 
L 139.51607 293.245608 
L 140.878108 291.699122 
L 142.240145 289.787602 
L 143.602183 287.462366 
L 144.96422 284.700376 
L 146.326258 281.499578 
L 147.688295 277.869133 
L 149.050333 273.816541 
L 150.41237 269.334577 
L 151.774408 264.391365 
L 153.136445 258.926584 
L 154.498482 252.855496 
L 155.86052 246.080529 
L 157.222557 238.507983 
L 158.584595 230.065842 
L 159.946632 220.718419 
L 162.670707 199.390479 
L 165.394782 175.13077 
L 172.204969 111.024892 
L 173.567007 99.709065 
L 174.929044 89.629014 
L 176.291082 81.084548 
L 177.653119 74.326145 
L 179.015157 69.535153 
L 180.377194 66.812712 
L 181.739232 66.178848 
L 183.101269 67.580611 
L 184.463307 70.906125 
L 185.825344 76.000714 
L 187.187382 82.681669 
L 188.549419 90.749626 
L 189.911456 99.996119 
L 192.635531 121.172093 
L 196.721644 156.504008 
L 200.807756 191.743959 
L 203.531831 213.473364 
L 206.255906 233.12779 
L 208.979981 250.44413 
L 211.704056 265.368324 
L 214.428131 278.009793 
L 215.790168 283.527336 
L 217.152206 288.532144 
L 218.514243 293.033536 
L 219.876281 297.036309 
L 221.238318 300.545474 
L 222.600355 303.572395 
L 223.962393 306.140338 
L 225.32443 308.28762 
L 226.686468 310.067274 
L 228.048505 311.543286 
L 229.410543 312.784436 
L 232.134618 314.820683 
L 237.582768 318.304949 
L 243.030917 321.582971 
L 245.754992 322.930054 
L 248.479067 323.925089 
L 251.203142 324.546854 
L 253.927217 324.894126 
L 259.375367 325.457294 
L 263.461479 326.164467 
L 267.547592 326.900483 
L 270.271667 327.18356 
L 272.995741 327.219198 
L 277.081854 326.919065 
L 281.167966 326.590146 
L 283.892041 326.581996 
L 286.616116 326.815201 
L 290.702228 327.496832 
L 294.788341 328.207115 
L 298.874453 328.662394 
L 305.684641 329.05688 
L 313.856865 329.411651 
L 319.305015 329.4239 
L 327.47724 329.127523 
L 331.563352 329.047925 
L 331.563352 329.047925 
" clip-path="url(#p4409011ec5)" style="fill: none; stroke: #1f77b4; stroke-width: 1.5; stroke-linecap: square"/>
   </g>
   <g id="patch_63">
    <path d="M 46.965625 329.558125 
L 46.965625 22.318125 
" style="fill: none; stroke: #000000; stroke-width: 0.8; stroke-linejoin: miter; stroke-linecap: square"/>
   </g>
   <g id="patch_64">
    <path d="M 46.965625 329.558125 
L 345.115625 329.558125 
" style="fill: none; stroke: #000000; stroke-width: 0.8; stroke-linejoin: miter; stroke-linecap: square"/>
   </g>
   <g id="text_16">
    <!-- After applying transform technique -->
    <g transform="translate(90.792188 16.318125)scale(0.12 -0.12)">
     <defs>
      <path id="DejaVuSans-66" d="M 2375 4863 
L 2375 4384 
L 1825 4384 
Q 1516 4384 1395 4259 
Q 1275 4134 1275 3809 
L 1275 3500 
L 2222 3500 
L 2222 3053 
L 1275 3053 
L 1275 0 
L 697 0 
L 697 3053 
L 147 3053 
L 147 3500 
L 697 3500 
L 697 3744 
Q 697 4328 969 4595 
Q 1241 4863 1831 4863 
L 2375 4863 
z
" transform="scale(0.015625)"/>
      <path id="DejaVuSans-20" transform="scale(0.015625)"/>
      <path id="DejaVuSans-70" d="M 1159 525 
L 1159 -1331 
L 581 -1331 
L 581 3500 
L 1159 3500 
L 1159 2969 
Q 1341 3281 1617 3432 
Q 1894 3584 2278 3584 
Q 2916 3584 3314 3078 
Q 3713 2572 3713 1747 
Q 3713 922 3314 415 
Q 2916 -91 2278 -91 
Q 1894 -91 1617 61 
Q 1341 213 1159 525 
z
M 3116 1747 
Q 3116 2381 2855 2742 
Q 2594 3103 2138 3103 
Q 1681 3103 1420 2742 
Q 1159 2381 1159 1747 
Q 1159 1113 1420 752 
Q 1681 391 2138 391 
Q 2594 391 2855 752 
Q 3116 1113 3116 1747 
z
" transform="scale(0.015625)"/>
      <path id="DejaVuSans-6c" d="M 603 4863 
L 1178 4863 
L 1178 0 
L 603 0 
L 603 4863 
z
" transform="scale(0.015625)"/>
      <path id="DejaVuSans-79" d="M 2059 -325 
Q 1816 -950 1584 -1140 
Q 1353 -1331 966 -1331 
L 506 -1331 
L 506 -850 
L 844 -850 
Q 1081 -850 1212 -737 
Q 1344 -625 1503 -206 
L 1606 56 
L 191 3500 
L 800 3500 
L 1894 763 
L 2988 3500 
L 3597 3500 
L 2059 -325 
z
" transform="scale(0.015625)"/>
      <path id="DejaVuSans-69" d="M 603 3500 
L 1178 3500 
L 1178 0 
L 603 0 
L 603 3500 
z
M 603 4863 
L 1178 4863 
L 1178 4134 
L 603 4134 
L 603 4863 
z
" transform="scale(0.015625)"/>
      <path id="DejaVuSans-67" d="M 2906 1791 
Q 2906 2416 2648 2759 
Q 2391 3103 1925 3103 
Q 1463 3103 1205 2759 
Q 947 2416 947 1791 
Q 947 1169 1205 825 
Q 1463 481 1925 481 
Q 2391 481 2648 825 
Q 2906 1169 2906 1791 
z
M 3481 434 
Q 3481 -459 3084 -895 
Q 2688 -1331 1869 -1331 
Q 1566 -1331 1297 -1286 
Q 1028 -1241 775 -1147 
L 775 -588 
Q 1028 -725 1275 -790 
Q 1522 -856 1778 -856 
Q 2344 -856 2625 -561 
Q 2906 -266 2906 331 
L 2906 616 
Q 2728 306 2450 153 
Q 2172 0 1784 0 
Q 1141 0 747 490 
Q 353 981 353 1791 
Q 353 2603 747 3093 
Q 1141 3584 1784 3584 
Q 2172 3584 2450 3431 
Q 2728 3278 2906 2969 
L 2906 3500 
L 3481 3500 
L 3481 434 
z
" transform="scale(0.015625)"/>
      <path id="DejaVuSans-73" d="M 2834 3397 
L 2834 2853 
Q 2591 2978 2328 3040 
Q 2066 3103 1784 3103 
Q 1356 3103 1142 2972 
Q 928 2841 928 2578 
Q 928 2378 1081 2264 
Q 1234 2150 1697 2047 
L 1894 2003 
Q 2506 1872 2764 1633 
Q 3022 1394 3022 966 
Q 3022 478 2636 193 
Q 2250 -91 1575 -91 
Q 1294 -91 989 -36 
Q 684 19 347 128 
L 347 722 
Q 666 556 975 473 
Q 1284 391 1588 391 
Q 1994 391 2212 530 
Q 2431 669 2431 922 
Q 2431 1156 2273 1281 
Q 2116 1406 1581 1522 
L 1381 1569 
Q 847 1681 609 1914 
Q 372 2147 372 2553 
Q 372 3047 722 3315 
Q 1072 3584 1716 3584 
Q 2034 3584 2315 3537 
Q 2597 3491 2834 3397 
z
" transform="scale(0.015625)"/>
      <path id="DejaVuSans-6d" d="M 3328 2828 
Q 3544 3216 3844 3400 
Q 4144 3584 4550 3584 
Q 5097 3584 5394 3201 
Q 5691 2819 5691 2113 
L 5691 0 
L 5113 0 
L 5113 2094 
Q 5113 2597 4934 2840 
Q 4756 3084 4391 3084 
Q 3944 3084 3684 2787 
Q 3425 2491 3425 1978 
L 3425 0 
L 2847 0 
L 2847 2094 
Q 2847 2600 2669 2842 
Q 2491 3084 2119 3084 
Q 1678 3084 1418 2786 
Q 1159 2488 1159 1978 
L 1159 0 
L 581 0 
L 581 3500 
L 1159 3500 
L 1159 2956 
Q 1356 3278 1631 3431 
Q 1906 3584 2284 3584 
Q 2666 3584 2933 3390 
Q 3200 3197 3328 2828 
z
" transform="scale(0.015625)"/>
      <path id="DejaVuSans-63" d="M 3122 3366 
L 3122 2828 
Q 2878 2963 2633 3030 
Q 2388 3097 2138 3097 
Q 1578 3097 1268 2742 
Q 959 2388 959 1747 
Q 959 1106 1268 751 
Q 1578 397 2138 397 
Q 2388 397 2633 464 
Q 2878 531 3122 666 
L 3122 134 
Q 2881 22 2623 -34 
Q 2366 -91 2075 -91 
Q 1284 -91 818 406 
Q 353 903 353 1747 
Q 353 2603 823 3093 
Q 1294 3584 2113 3584 
Q 2378 3584 2631 3529 
Q 2884 3475 3122 3366 
z
" transform="scale(0.015625)"/>
      <path id="DejaVuSans-68" d="M 3513 2113 
L 3513 0 
L 2938 0 
L 2938 2094 
Q 2938 2591 2744 2837 
Q 2550 3084 2163 3084 
Q 1697 3084 1428 2787 
Q 1159 2491 1159 1978 
L 1159 0 
L 581 0 
L 581 4863 
L 1159 4863 
L 1159 2956 
Q 1366 3272 1645 3428 
Q 1925 3584 2291 3584 
Q 2894 3584 3203 3211 
Q 3513 2838 3513 2113 
z
" transform="scale(0.015625)"/>
      <path id="DejaVuSans-71" d="M 947 1747 
Q 947 1113 1208 752 
Q 1469 391 1925 391 
Q 2381 391 2643 752 
Q 2906 1113 2906 1747 
Q 2906 2381 2643 2742 
Q 2381 3103 1925 3103 
Q 1469 3103 1208 2742 
Q 947 2381 947 1747 
z
M 2906 525 
Q 2725 213 2448 61 
Q 2172 -91 1784 -91 
Q 1150 -91 751 415 
Q 353 922 353 1747 
Q 353 2572 751 3078 
Q 1150 3584 1784 3584 
Q 2172 3584 2448 3432 
Q 2725 3281 2906 2969 
L 2906 3500 
L 3481 3500 
L 3481 -1331 
L 2906 -1331 
L 2906 525 
z
" transform="scale(0.015625)"/>
     </defs>
     <use xlink:href="#DejaVuSans-41"/>
     <use xlink:href="#DejaVuSans-66" x="64.783203"/>
     <use xlink:href="#DejaVuSans-74" x="98.238281"/>
     <use xlink:href="#DejaVuSans-65" x="137.447266"/>
     <use xlink:href="#DejaVuSans-72" x="198.970703"/>
     <use xlink:href="#DejaVuSans-20" x="240.083984"/>
     <use xlink:href="#DejaVuSans-61" x="271.871094"/>
     <use xlink:href="#DejaVuSans-70" x="333.150391"/>
     <use xlink:href="#DejaVuSans-70" x="396.626953"/>
     <use xlink:href="#DejaVuSans-6c" x="460.103516"/>
     <use xlink:href="#DejaVuSans-79" x="487.886719"/>
     <use xlink:href="#DejaVuSans-69" x="547.066406"/>
     <use xlink:href="#DejaVuSans-6e" x="574.849609"/>
     <use xlink:href="#DejaVuSans-67" x="638.228516"/>
     <use xlink:href="#DejaVuSans-20" x="701.705078"/>
     <use xlink:href="#DejaVuSans-74" x="733.492188"/>
     <use xlink:href="#DejaVuSans-72" x="772.701172"/>
     <use xlink:href="#DejaVuSans-61" x="813.814453"/>
     <use xlink:href="#DejaVuSans-6e" x="875.09375"/>
     <use xlink:href="#DejaVuSans-73" x="938.472656"/>
     <use xlink:href="#DejaVuSans-66" x="990.572266"/>
     <use xlink:href="#DejaVuSans-6f" x="1025.777344"/>
     <use xlink:href="#DejaVuSans-72" x="1086.958984"/>
     <use xlink:href="#DejaVuSans-6d" x="1126.322266"/>
     <use xlink:href="#DejaVuSans-20" x="1223.734375"/>
     <use xlink:href="#DejaVuSans-74" x="1255.521484"/>
     <use xlink:href="#DejaVuSans-65" x="1294.730469"/>
     <use xlink:href="#DejaVuSans-63" x="1356.253906"/>
     <use xlink:href="#DejaVuSans-68" x="1411.234375"/>
     <use xlink:href="#DejaVuSans-6e" x="1474.613281"/>
     <use xlink:href="#DejaVuSans-69" x="1537.992188"/>
     <use xlink:href="#DejaVuSans-71" x="1565.775391"/>
     <use xlink:href="#DejaVuSans-75" x="1629.251953"/>
     <use xlink:href="#DejaVuSans-65" x="1692.630859"/>
    </g>
   </g>
   <g id="legend_1">
    <g id="patch_65">
     <path d="M 191.167187 74.3525 
L 338.115625 74.3525 
Q 340.115625 74.3525 340.115625 72.3525 
L 340.115625 29.318125 
Q 340.115625 27.318125 338.115625 27.318125 
L 191.167187 27.318125 
Q 189.167187 27.318125 189.167187 29.318125 
L 189.167187 72.3525 
Q 189.167187 74.3525 191.167187 74.3525 
z
" style="fill: #ffffff; opacity: 0.8; stroke: #cccccc; stroke-linejoin: miter"/>
    </g>
    <g id="text_17">
     <!-- skewness and kurtosis -->
     <g transform="translate(208.535937 38.916562)scale(0.1 -0.1)">
      <defs>
       <path id="DejaVuSans-6b" d="M 581 4863 
L 1159 4863 
L 1159 1991 
L 2875 3500 
L 3609 3500 
L 1753 1863 
L 3688 0 
L 2938 0 
L 1159 1709 
L 1159 0 
L 581 0 
L 581 4863 
z
" transform="scale(0.015625)"/>
       <path id="DejaVuSans-77" d="M 269 3500 
L 844 3500 
L 1563 769 
L 2278 3500 
L 2956 3500 
L 3675 769 
L 4391 3500 
L 4966 3500 
L 4050 0 
L 3372 0 
L 2619 2869 
L 1863 0 
L 1184 0 
L 269 3500 
z
" transform="scale(0.015625)"/>
       <path id="DejaVuSans-64" d="M 2906 2969 
L 2906 4863 
L 3481 4863 
L 3481 0 
L 2906 0 
L 2906 525 
Q 2725 213 2448 61 
Q 2172 -91 1784 -91 
Q 1150 -91 751 415 
Q 353 922 353 1747 
Q 353 2572 751 3078 
Q 1150 3584 1784 3584 
Q 2172 3584 2448 3432 
Q 2725 3281 2906 2969 
z
M 947 1747 
Q 947 1113 1208 752 
Q 1469 391 1925 391 
Q 2381 391 2643 752 
Q 2906 1113 2906 1747 
Q 2906 2381 2643 2742 
Q 2381 3103 1925 3103 
Q 1469 3103 1208 2742 
Q 947 2381 947 1747 
z
" transform="scale(0.015625)"/>
      </defs>
      <use xlink:href="#DejaVuSans-73"/>
      <use xlink:href="#DejaVuSans-6b" x="52.099609"/>
      <use xlink:href="#DejaVuSans-65" x="106.384766"/>
      <use xlink:href="#DejaVuSans-77" x="167.908203"/>
      <use xlink:href="#DejaVuSans-6e" x="249.695312"/>
      <use xlink:href="#DejaVuSans-65" x="313.074219"/>
      <use xlink:href="#DejaVuSans-73" x="374.597656"/>
      <use xlink:href="#DejaVuSans-73" x="426.697266"/>
      <use xlink:href="#DejaVuSans-20" x="478.796875"/>
      <use xlink:href="#DejaVuSans-61" x="510.583984"/>
      <use xlink:href="#DejaVuSans-6e" x="571.863281"/>
      <use xlink:href="#DejaVuSans-64" x="635.242188"/>
      <use xlink:href="#DejaVuSans-20" x="698.71875"/>
      <use xlink:href="#DejaVuSans-6b" x="730.505859"/>
      <use xlink:href="#DejaVuSans-75" x="785.291016"/>
      <use xlink:href="#DejaVuSans-72" x="848.669922"/>
      <use xlink:href="#DejaVuSans-74" x="889.783203"/>
      <use xlink:href="#DejaVuSans-6f" x="928.992188"/>
      <use xlink:href="#DejaVuSans-73" x="990.173828"/>
      <use xlink:href="#DejaVuSans-69" x="1042.273438"/>
      <use xlink:href="#DejaVuSans-73" x="1070.056641"/>
     </g>
    </g>
    <g id="line2d_15">
     <path d="M 193.167187 50.094687 
L 203.167187 50.094687 
L 213.167187 50.094687 
" style="fill: none; stroke: #1f77b4; stroke-width: 1.5; stroke-linecap: square"/>
    </g>
    <g id="text_18">
     <!-- -0.6173600055639943 -->
     <g transform="translate(221.167187 53.594687)scale(0.1 -0.1)">
      <defs>
       <path id="DejaVuSans-2d" d="M 313 2009 
L 1997 2009 
L 1997 1497 
L 313 1497 
L 313 2009 
z
" transform="scale(0.015625)"/>
       <path id="DejaVuSans-2e" d="M 684 794 
L 1344 794 
L 1344 0 
L 684 0 
L 684 794 
z
" transform="scale(0.015625)"/>
       <path id="DejaVuSans-33" d="M 2597 2516 
Q 3050 2419 3304 2112 
Q 3559 1806 3559 1356 
Q 3559 666 3084 287 
Q 2609 -91 1734 -91 
Q 1441 -91 1130 -33 
Q 819 25 488 141 
L 488 750 
Q 750 597 1062 519 
Q 1375 441 1716 441 
Q 2309 441 2620 675 
Q 2931 909 2931 1356 
Q 2931 1769 2642 2001 
Q 2353 2234 1838 2234 
L 1294 2234 
L 1294 2753 
L 1863 2753 
Q 2328 2753 2575 2939 
Q 2822 3125 2822 3475 
Q 2822 3834 2567 4026 
Q 2313 4219 1838 4219 
Q 1578 4219 1281 4162 
Q 984 4106 628 3988 
L 628 4550 
Q 988 4650 1302 4700 
Q 1616 4750 1894 4750 
Q 2613 4750 3031 4423 
Q 3450 4097 3450 3541 
Q 3450 3153 3228 2886 
Q 3006 2619 2597 2516 
z
" transform="scale(0.015625)"/>
       <path id="DejaVuSans-35" d="M 691 4666 
L 3169 4666 
L 3169 4134 
L 1269 4134 
L 1269 2991 
Q 1406 3038 1543 3061 
Q 1681 3084 1819 3084 
Q 2600 3084 3056 2656 
Q 3513 2228 3513 1497 
Q 3513 744 3044 326 
Q 2575 -91 1722 -91 
Q 1428 -91 1123 -41 
Q 819 9 494 109 
L 494 744 
Q 775 591 1075 516 
Q 1375 441 1709 441 
Q 2250 441 2565 725 
Q 2881 1009 2881 1497 
Q 2881 1984 2565 2268 
Q 2250 2553 1709 2553 
Q 1456 2553 1204 2497 
Q 953 2441 691 2322 
L 691 4666 
z
" transform="scale(0.015625)"/>
      </defs>
      <use xlink:href="#DejaVuSans-2d"/>
      <use xlink:href="#DejaVuSans-30" x="36.083984"/>
      <use xlink:href="#DejaVuSans-2e" x="99.707031"/>
      <use xlink:href="#DejaVuSans-36" x="131.494141"/>
      <use xlink:href="#DejaVuSans-31" x="195.117188"/>
      <use xlink:href="#DejaVuSans-37" x="258.740234"/>
      <use xlink:href="#DejaVuSans-33" x="322.363281"/>
      <use xlink:href="#DejaVuSans-36" x="385.986328"/>
      <use xlink:href="#DejaVuSans-30" x="449.609375"/>
      <use xlink:href="#DejaVuSans-30" x="513.232422"/>
      <use xlink:href="#DejaVuSans-30" x="576.855469"/>
      <use xlink:href="#DejaVuSans-35" x="640.478516"/>
      <use xlink:href="#DejaVuSans-35" x="704.101562"/>
      <use xlink:href="#DejaVuSans-36" x="767.724609"/>
      <use xlink:href="#DejaVuSans-33" x="831.347656"/>
      <use xlink:href="#DejaVuSans-39" x="894.970703"/>
      <use xlink:href="#DejaVuSans-39" x="958.59375"/>
      <use xlink:href="#DejaVuSans-34" x="1022.216797"/>
      <use xlink:href="#DejaVuSans-33" x="1085.839844"/>
     </g>
    </g>
    <g id="patch_66">
     <path d="M 193.167187 68.272812 
L 213.167187 68.272812 
L 213.167187 61.272812 
L 193.167187 61.272812 
z
" style="fill: #1f77b4; fill-opacity: 0.5; stroke: #000000; stroke-width: 0.465917; stroke-linejoin: miter"/>
    </g>
    <g id="text_19">
     <!-- 3.1861164751339963 -->
     <g transform="translate(221.167187 68.272812)scale(0.1 -0.1)">
      <use xlink:href="#DejaVuSans-33"/>
      <use xlink:href="#DejaVuSans-2e" x="63.623047"/>
      <use xlink:href="#DejaVuSans-31" x="95.410156"/>
      <use xlink:href="#DejaVuSans-38" x="159.033203"/>
      <use xlink:href="#DejaVuSans-36" x="222.65625"/>
      <use xlink:href="#DejaVuSans-31" x="286.279297"/>
      <use xlink:href="#DejaVuSans-31" x="349.902344"/>
      <use xlink:href="#DejaVuSans-36" x="413.525391"/>
      <use xlink:href="#DejaVuSans-34" x="477.148438"/>
      <use xlink:href="#DejaVuSans-37" x="540.771484"/>
      <use xlink:href="#DejaVuSans-35" x="604.394531"/>
      <use xlink:href="#DejaVuSans-31" x="668.017578"/>
      <use xlink:href="#DejaVuSans-33" x="731.640625"/>
      <use xlink:href="#DejaVuSans-33" x="795.263672"/>
      <use xlink:href="#DejaVuSans-39" x="858.886719"/>
      <use xlink:href="#DejaVuSans-39" x="922.509766"/>
      <use xlink:href="#DejaVuSans-36" x="986.132812"/>
      <use xlink:href="#DejaVuSans-33" x="1049.755859"/>
     </g>
    </g>
   </g>
  </g>
 </g>
 <defs>
  <clipPath id="p4409011ec5">
   <rect x="46.965625" y="22.318125" width="298.15" height="307.24"/>
  </clipPath>
 </defs>
</svg>
