<svg viewBox="0 0 1281 400" xmlns="http://www.w3.org/2000/svg"><g><g><g><g><g><line x1="53.1875" y1="376" x2="48.1875" y2="376" style="visibility: inherit;" fill="rgb(0, 0, 0)" stroke="rgb(204, 204, 204)" stroke-width="1px"></line><line x1="53.1875" y1="338.40000000000003" x2="48.1875" y2="338.40000000000003" style="visibility: inherit;" fill="rgb(0, 0, 0)" stroke="rgb(204, 204, 204)" stroke-width="1px"></line><line x1="53.1875" y1="300.8" x2="48.1875" y2="300.8" style="visibility: inherit;" fill="rgb(0, 0, 0)" stroke="rgb(204, 204, 204)" stroke-width="1px"></line><line x1="53.1875" y1="263.2" x2="48.1875" y2="263.2" style="visibility: inherit;" fill="rgb(0, 0, 0)" stroke="rgb(204, 204, 204)" stroke-width="1px"></line><line x1="53.1875" y1="225.59999999999994" x2="48.1875" y2="225.59999999999994" style="visibility: inherit;" fill="rgb(0, 0, 0)" stroke="rgb(204, 204, 204)" stroke-width="1px"></line><line x1="53.1875" y1="187.99999999999997" x2="48.1875" y2="187.99999999999997" style="visibility: inherit;" fill="rgb(0, 0, 0)" stroke="rgb(204, 204, 204)" stroke-width="1px"></line><line x1="53.1875" y1="150.40000000000015" x2="48.1875" y2="150.40000000000015" style="visibility: inherit;" fill="rgb(0, 0, 0)" stroke="rgb(204, 204, 204)" stroke-width="1px"></line><line x1="53.1875" y1="112.8000000000001" x2="48.1875" y2="112.8000000000001" style="visibility: inherit;" fill="rgb(0, 0, 0)" stroke="rgb(204, 204, 204)" stroke-width="1px"></line><line x1="53.1875" y1="75.20000000000007" x2="48.1875" y2="75.20000000000007" style="visibility: inherit;" fill="rgb(0, 0, 0)" stroke="rgb(204, 204, 204)" stroke-width="1px"></line><line x1="53.1875" y1="37.60000000000004" x2="48.1875" y2="37.60000000000004" style="visibility: inherit;" fill="rgb(0, 0, 0)" stroke="rgb(204, 204, 204)" stroke-width="1px"></line><line x1="53.1875" y1="0" x2="48.1875" y2="0" style="visibility: inherit;" fill="rgb(0, 0, 0)" stroke="rgb(204, 204, 204)" stroke-width="1px"></line></g><g transform="translate(43.1875, 0)"><text x="0" y="376" dx="0em" dy="0.3em" style="text-anchor: end; visibility: hidden; font-family: Roboto, sans-serif; font-size: 12px; font-weight: 200;" fill="rgb(33, 33, 33)" stroke="none" stroke-width="1px">0.46</text><text x="0" y="338.40000000000003" dx="0em" dy="0.3em" style="text-anchor: end; visibility: inherit; font-family: Roboto, sans-serif; font-size: 12px; font-weight: 200;" fill="rgb(33, 33, 33)" stroke="none" stroke-width="1px">0.48</text><text x="0" y="300.8" dx="0em" dy="0.3em" style="text-anchor: end; visibility: inherit; font-family: Roboto, sans-serif; font-size: 12px; font-weight: 200;" fill="rgb(33, 33, 33)" stroke="none" stroke-width="1px">0.5</text><text x="0" y="263.2" dx="0em" dy="0.3em" style="text-anchor: end; visibility: inherit; font-family: Roboto, sans-serif; font-size: 12px; font-weight: 200;" fill="rgb(33, 33, 33)" stroke="none" stroke-width="1px">0.52</text><text x="0" y="225.59999999999994" dx="0em" dy="0.3em" style="text-anchor: end; visibility: inherit; font-family: Roboto, sans-serif; font-size: 12px; font-weight: 200;" fill="rgb(33, 33, 33)" stroke="none" stroke-width="1px">0.54</text><text x="0" y="187.99999999999997" dx="0em" dy="0.3em" style="text-anchor: end; visibility: inherit; font-family: Roboto, sans-serif; font-size: 12px; font-weight: 200;" fill="rgb(33, 33, 33)" stroke="none" stroke-width="1px">0.56</text><text x="0" y="150.40000000000015" dx="0em" dy="0.3em" style="text-anchor: end; visibility: inherit; font-family: Roboto, sans-serif; font-size: 12px; font-weight: 200;" fill="rgb(33, 33, 33)" stroke="none" stroke-width="1px">0.58</text><text x="0" y="112.8000000000001" dx="0em" dy="0.3em" style="text-anchor: end; visibility: inherit; font-family: Roboto, sans-serif; font-size: 12px; font-weight: 200;" fill="rgb(33, 33, 33)" stroke="none" stroke-width="1px">0.6</text><text x="0" y="75.20000000000007" dx="0em" dy="0.3em" style="text-anchor: end; visibility: inherit; font-family: Roboto, sans-serif; font-size: 12px; font-weight: 200;" fill="rgb(33, 33, 33)" stroke="none" stroke-width="1px">0.62</text><text x="0" y="37.60000000000004" dx="0em" dy="0.3em" style="text-anchor: end; visibility: inherit; font-family: Roboto, sans-serif; font-size: 12px; font-weight: 200;" fill="rgb(33, 33, 33)" stroke="none" stroke-width="1px">0.64</text><text x="0" y="0" dx="0em" dy="0.3em" style="text-anchor: end; visibility: hidden; font-family: Roboto, sans-serif; font-size: 12px; font-weight: 200;" fill="rgb(33, 33, 33)" stroke="none" stroke-width="1px">0.66</text></g><line x1="53.1875" y1="0" x2="53.1875" y2="376" fill="rgb(0, 0, 0)" stroke="rgb(204, 204, 204)" stroke-width="1px"></line></g></g><g transform="translate(53, 0)" clip-path="url(#clip_0)"><clipPath id="clip_0"><rect width="1227" height="376"></rect></clipPath><g><g><g><line x1="0" y1="0" x2="0" y2="376" fill="rgb(0, 0, 0)" stroke="rgb(66, 66, 66)" stroke-width="1px" opacity="0.25"></line><line x1="102.31770833333333" y1="0" x2="102.31770833333333" y2="376" fill="rgb(0, 0, 0)" stroke="rgb(66, 66, 66)" stroke-width="1px" opacity="0.25"></line><line x1="204.63541666666666" y1="0" x2="204.63541666666666" y2="376" fill="rgb(0, 0, 0)" stroke="rgb(66, 66, 66)" stroke-width="1px" opacity="0.25"></line><line x1="306.953125" y1="0" x2="306.953125" y2="376" fill="rgb(0, 0, 0)" stroke="rgb(66, 66, 66)" stroke-width="1px" opacity="0.25"></line><line x1="409.2708333333333" y1="0" x2="409.2708333333333" y2="376" fill="rgb(0, 0, 0)" stroke="rgb(66, 66, 66)" stroke-width="1px" opacity="0.25"></line><line x1="511.5885416666667" y1="0" x2="511.5885416666667" y2="376" fill="rgb(0, 0, 0)" stroke="rgb(66, 66, 66)" stroke-width="1px" opacity="0.25"></line><line x1="613.90625" y1="0" x2="613.90625" y2="376" fill="rgb(0, 0, 0)" stroke="rgb(66, 66, 66)" stroke-width="1px" opacity="0.25"></line><line x1="716.2239583333334" y1="0" x2="716.2239583333334" y2="376" fill="rgb(0, 0, 0)" stroke="rgb(66, 66, 66)" stroke-width="1px" opacity="0.25"></line><line x1="818.5416666666666" y1="0" x2="818.5416666666666" y2="376" fill="rgb(0, 0, 0)" stroke="rgb(66, 66, 66)" stroke-width="1px" opacity="0.25"></line><line x1="920.859375" y1="0" x2="920.859375" y2="376" fill="rgb(0, 0, 0)" stroke="rgb(66, 66, 66)" stroke-width="1px" opacity="0.25"></line><line x1="1023.1770833333334" y1="0" x2="1023.1770833333334" y2="376" fill="rgb(0, 0, 0)" stroke="rgb(66, 66, 66)" stroke-width="1px" opacity="0.25"></line><line x1="1125.4947916666665" y1="0" x2="1125.4947916666665" y2="376" fill="rgb(0, 0, 0)" stroke="rgb(66, 66, 66)" stroke-width="1px" opacity="0.25"></line><line x1="1227.8125" y1="0" x2="1227.8125" y2="376" fill="rgb(0, 0, 0)" stroke="rgb(66, 66, 66)" stroke-width="1px" opacity="0.25"></line></g><g><line x1="0" y1="376" x2="1227.8125" y2="376" fill="rgb(0, 0, 0)" stroke="rgb(66, 66, 66)" stroke-width="1px" opacity="0.25"></line><line x1="0" y1="338.40000000000003" x2="1227.8125" y2="338.40000000000003" fill="rgb(0, 0, 0)" stroke="rgb(66, 66, 66)" stroke-width="1px" opacity="0.25"></line><line x1="0" y1="300.8" x2="1227.8125" y2="300.8" fill="rgb(0, 0, 0)" stroke="rgb(66, 66, 66)" stroke-width="1px" opacity="0.25"></line><line x1="0" y1="263.2" x2="1227.8125" y2="263.2" fill="rgb(0, 0, 0)" stroke="rgb(66, 66, 66)" stroke-width="1px" opacity="0.25"></line><line x1="0" y1="225.59999999999994" x2="1227.8125" y2="225.59999999999994" fill="rgb(0, 0, 0)" stroke="rgb(66, 66, 66)" stroke-width="1px" opacity="0.25"></line><line x1="0" y1="187.99999999999997" x2="1227.8125" y2="187.99999999999997" fill="rgb(0, 0, 0)" stroke="rgb(66, 66, 66)" stroke-width="1px" opacity="0.25"></line><line x1="0" y1="150.40000000000015" x2="1227.8125" y2="150.40000000000015" fill="rgb(0, 0, 0)" stroke="rgb(66, 66, 66)" stroke-width="1px" opacity="0.25"></line><line x1="0" y1="112.8000000000001" x2="1227.8125" y2="112.8000000000001" fill="rgb(0, 0, 0)" stroke="rgb(66, 66, 66)" stroke-width="1px" opacity="0.25"></line><line x1="0" y1="75.20000000000007" x2="1227.8125" y2="75.20000000000007" fill="rgb(0, 0, 0)" stroke="rgb(66, 66, 66)" stroke-width="1px" opacity="0.25"></line><line x1="0" y1="37.60000000000004" x2="1227.8125" y2="37.60000000000004" fill="rgb(0, 0, 0)" stroke="rgb(66, 66, 66)" stroke-width="1px" opacity="0.25"></line><line x1="0" y1="0" x2="1227.8125" y2="0" fill="rgb(0, 0, 0)" stroke="rgb(66, 66, 66)" stroke-width="1px" opacity="0.25"></line></g></g></g><g><g><line x1="0" y1="1240.8" x2="1227.8125" y2="1240.8" fill="rgb(0, 0, 0)" stroke="rgb(153, 153, 153)" stroke-width="1.5px"></line></g></g><g><g><line x1="102.31770833333333" y1="0" x2="102.31770833333333" y2="376" fill="rgb(0, 0, 0)" stroke="rgb(153, 153, 153)" stroke-width="1.5px"></line></g></g><g><g><g><g><g><path stroke="rgb(51, 187, 238)" stroke-width="2px" d="M143.24479166666666,378.85800412128503L148.36067708333334,356.40294117606794L153.4765625,333.8254405934724L158.59244791666669,316.76214131002877L163.70833333333334,305.0195762404708L168.82421875,291.36436751728235L173.94010416666666,277.57867570289875L179.05598958333334,266.0033241575607L184.171875,258.29687832889397L189.28776041666669,243.75133496376418L194.40364583333331,229.68225693585444L199.51953125,222.2590056225045L204.63541666666666,224.41967913512804L209.75130208333334,213.50480113906497L214.8671875,205.17519145839051L219.98307291666666,204.24783577688993L225.09895833333331,195.29629022866837L230.21484375,192.2149710676179L235.33072916666669,182.73421520853182L240.44661458333334,172.72100290312622L245.5625,167.73068942647782L250.67838541666666,182.54433821833456L255.79427083333334,173.3702776326927L260.91015625,169.13782053964363L266.0260416666667,168.37915217220186L271.1419270833333,167.16075516153995L276.2578125,164.64891135910236L281.37369791666663,151.1851275451205L286.4895833333333,152.7739916904086L291.60546875,148.6393518165194L296.7213541666667,145.3953719087951L301.8372395833333,148.79131109384718L306.953125,137.34580517129842L312.06901041666663,136.3296559538524L317.18489583333337,130.37759448154262L322.30078125,126.04316160760828L327.4166666666667,123.69691548849096L332.5325520833333,126.86834376655911L337.6484375,118.34087045639382L342.7643229166667,124.67228152080463L347.8802083333333,126.94473617630756L352.99609375,117.62350991097031L358.1119791666667,114.5747757311135L363.2278645833333,117.32466634962593L368.34375,110.57948963672914L373.45963541666663,112.38353793639737L378.57552083333337,111.68516132842738L383.69140625,112.02933135516197L388.80729166666663,109.43746300987416L393.92317708333337,103.81199326307684L399.0390625,100.18229781026304L404.1549479166667,106.39959162255971L409.2708333333333,107.3315975486091L414.38671875,111.19799867503963L419.5026041666667,115.29860011597363L424.6184895833333,100.2054979983561L429.734375,102.3431629957911L434.8502604166667,105.40656758202041L439.9661458333333,107.49897911580189L445.08203125,96.79774859924197L450.19791666666663,90.37701028930611L455.31380208333337,86.77893608538764L460.4296875,87.16409314232165L465.54557291666663,85.36001300666979L470.66145833333337,87.07593528660679L475.77734375,84.54392230172488L480.8932291666667,87.34947685515588L486.0091145833333,81.90967688152617L491.125,86.7864943765964L496.2408854166667,89.20380248685882L501.3567708333333,92.18057933604838L506.47265625,84.55392476532538L511.5885416666667,86.08349995502036L516.7044270833334,77.84289317064399L521.8203125,78.24090104063113L526.9361979166666,77.46209616637086L532.0520833333334,63.76611260399746L537.16796875,63.18048238173452L542.2838541666666,72.24182492861357L547.3997395833334,77.9330440614772L552.515625,80.33016594494303L557.6315104166666,74.89967515137747L562.7473958333333,78.76455820361943L567.86328125,67.85478739714739L572.9791666666666,68.17764401421624L578.0950520833334,66.59059721938178L583.2109375,64.6207595462287L588.3268229166667,58.0965298244171L593.4427083333334,56.98036235265805L598.55859375,60.38101060922665L603.6744791666666,63.18459555468392L608.7903645833334,67.15633449650666L613.90625,66.7410075002721L619.0221354166666,69.03576805912324L624.1380208333333,66.59668925954611L629.25390625,68.18598112317159L634.3697916666667,66.3411858800187L639.4856770833334,70.06789828795989L644.6015625,78.66386244689693L649.7174479166666,73.13674188372651L654.8333333333334,69.31164233635161L659.94921875,65.49019062489457L665.0651041666666,62.94295081597672L670.1809895833333,65.99373805702982L675.296875,66.80664562810223L680.4127604166667,67.80317255752547L685.5286458333334,55.172388077361944L690.64453125,58.53303005253279L695.7604166666666,64.87417758199581L700.8763020833333,60.28375501568925L705.9921875,54.73113111457723L711.1080729166667,61.06664623619025L716.2239583333334,66.39434729219033L721.33984375,56.616680892709326L726.4557291666666,49.22368906998837L731.5716145833334,52.92863627829692L736.6875,57.695606182566515L741.8033854166666,60.3013745203919L746.9192708333333,62.119249127823586L752.03515625,58.88521154792203L757.1510416666667,57.199157782024564L762.2669270833334,65.09146381594327L767.3828125,51.51018846260066L772.4986979166666,55.31814551011657L777.6145833333333,58.36611573014215L782.73046875,55.87013551779722L787.8463541666667,51.06534981958949L792.9622395833334,54.03363272805735L798.078125,58.104190447686314L803.1940104166666,57.49374111339958L808.3098958333334,62.46984345344024L813.42578125,55.7883705724915L818.5416666666666,58.39383716283094L823.6575520833333,58.939507520782044L828.7734375,56.4685393742245L833.8893229166667,53.96839371273044L839.0052083333334,49.92430473654946L844.12109375,56.401789644297864L849.2369791666666,53.67393027003817L854.3528645833333,51.78280104074607L859.46875,46.57777476354687L864.5846354166667,59.227416391636616L869.7005208333334,56.89569830147361L874.81640625,54.98788506059606L879.9322916666666,50.53599954526875L885.0481770833334,46.59288985777659L890.1640625,43.20941444902877L895.2799479166666,45.50409154814043L900.3958333333333,56.8024456973169L905.51171875,59.0022822377261L910.6276041666667,52.18144186003062L915.7434895833334,48.85213362492953L920.859375,46.09135269235268L925.9752604166666,48.759646477167L931.0911458333333,51.63260112635141L936.20703125,44.96126283187772L941.3229166666667,43.75683021652168L946.4388020833334,45.57817222659268L951.5546875,50.232543785479635L956.6705729166666,53.02516672081173L961.7864583333334,42.998431827225666L966.90234375,46.90389395809071L972.0182291666666,47.72077925357776L977.1341145833333,45.92132245632144L982.25,44.07849720914445L987.3658854166667,45.26234521269385L992.4817708333334,55.131005913016764L997.59765625,48.332284082172876L1002.7135416666666,43.489854992150555L1007.8294270833333,40.33002875609354L1012.9453125,43.26767774559955L1018.0611979166667,45.28468074403948L1023.1770833333334,41.661292989270436L1028.29296875,41.01365231944119L1033.4088541666667,41.897046295839544L1038.5247395833333,41.40951790811903L1043.640625,50.02093916894375L1048.7565104166665,47.04704962349758L1053.8723958333333,49.84189184532647L1058.98828125,46.17642523781114L1064.1041666666667,45.249123651597884L1069.2200520833333,43.675177926310276L1074.3359375,44.511571256213436L1079.4518229166667,40.94305851453139L1084.5677083333333,46.68827956672671L1089.68359375,47.082628231979285L1094.7994791666667,39.432908733926325L1099.9153645833335,37.89586100115904L1105.03125,46.895135428515275L1110.1471354166667,39.57482665658433L1115.2630208333333,37.472184545281266L1120.37890625,38.50018725304769" style="fill: none;" fill="none"></path></g></g></g></g><g opacity="0.2"><g><g><g><path stroke="rgb(51, 187, 238)" stroke-width="2px" d="M127.89713541666667,417.18699650764466L133.01302083333334,372.6673610687256L138.12890625,352.3155613422394L143.24479166666666,335.14370756149293L148.36067708333334,323.0597897052765L153.4765625,300.1639659881592L158.59244791666669,291.2600501060486L163.70833333333334,287.44407014846803L168.82421875,270.9083064079285L173.94010416666666,256.9163425445557L179.05598958333334,248.6484606742859L184.171875,246.74047069549562L189.28776041666669,221.9367130279541L194.40364583333331,208.58078317642213L199.51953125,211.12480716705323L204.63541666666666,227.66057090759278L209.75130208333334,197.13284330368043L214.8671875,192.68094139099122L219.98307291666666,202.85681324005128L225.09895833333331,181.8690355300904L230.21484375,187.59300546646125L235.33072916666669,168.51310567855842L240.44661458333334,157.70119981765754L245.5625,160.24522380828864L250.67838541666666,204.76480321884156L255.79427083333334,159.60918979644782L260.91015625,162.78913574218757L266.0260416666667,167.24114971160895L271.1419270833333,165.33315973281867L276.2578125,160.88114576339729L281.37369791666663,130.98945217132575L286.4895833333333,155.1572878837586L291.60546875,142.43739204406745L296.7213541666667,140.52940206527717L301.8372395833333,153.88521986007697L306.953125,120.17754631042486L312.06901041666663,134.80543212890632L317.18489583333337,121.44950227737432L322.30078125,119.54151229858404L327.4166666666667,120.17754631042486L332.5325520833333,131.62548618316657L337.6484375,105.54966049194341L342.7643229166667,134.1693981170655L347.8802083333333,130.35341815948493L352.99609375,103.64167051315313L358.1119791666667,110.0016744613648L363.2278645833333,121.44950227737432L368.34375,100.46172456741338L373.45963541666663,115.08961038589483L378.57552083333337,110.63759641647344L383.69140625,112.54558639526373L388.80729166666663,105.54966049194341L393.92317708333337,95.37378864288335L399.0390625,94.73775463104253L404.1549479166667,115.72553234100347L409.2708333333333,108.72960643768316L414.38671875,116.99760036468511L419.5026041666667,121.44950227737432L424.6184895833333,77.56584482192999L429.734375,105.54966049194341L434.8502604166667,110.0016744613648L439.9661458333333,110.63759641647344L445.08203125,80.74590282440191L450.19791666666663,80.74590282440191L455.31380208333337,81.38182477951055L460.4296875,87.74182872772222L465.54557291666663,82.65389280319219L470.66145833333337,89.6498187065125L475.77734375,80.74590282440191L480.8932291666667,91.55780868530279L486.0091145833333,73.7499769210816L491.125,94.10172061920171L496.2408854166667,92.82976465225225L501.3567708333333,96.64574460983282L506.47265625,73.11394290924078L511.5885416666667,88.37786273956304L516.7044270833334,65.48198299407964L521.8203125,78.83791284561163L526.9361979166666,76.29388885498052L532.0520833333334,43.22213726043707L537.16796875,62.302037048339905L542.2838541666666,85.83383874893194L547.3997395833334,86.46987276077276L552.515625,83.92584877014166L557.6315104166666,66.7539389610291L562.7473958333333,84.56188278198248L567.86328125,51.490131187439026L572.9791666666666,68.66192893981939L578.0950520833334,64.21002702713018L583.2109375,61.666003036499085L588.3268229166667,48.31018524169928L593.4427083333334,55.30611114501959L598.55859375,65.48198299407964L603.6744791666666,67.38997297286993L608.7903645833334,73.11394290924078L613.90625,66.11801700592046L619.0221354166666,72.47790889739996L624.1380208333333,62.938071060180725L629.25390625,70.56991891860967L634.3697916666667,63.57399301528937L639.4856770833334,75.65796689987188L644.6015625,91.55780868530279L649.7174479166666,64.846061038971L654.8333333333334,63.57399301528937L659.94921875,59.7580130577088L665.0651041666666,59.12209110260016L670.1809895833333,70.56991891860967L675.296875,68.02600698471075L680.4127604166667,69.29796295166021L685.5286458333334,36.22621135711676L690.64453125,63.57399301528937L695.7604166666666,74.38589887619024L700.8763020833333,53.39812116622931L705.9921875,46.402195262909L711.1080729166667,70.56991891860967L716.2239583333334,74.38589887619024L721.33984375,41.95018129348761L726.4557291666666,38.13420133590704L731.5716145833334,58.48605709075934L736.6875,64.846061038971L741.8033854166666,64.21002702713018L746.9192708333333,64.846061038971L752.03515625,54.03415517807013L757.1510416666667,54.67007713317877L762.2669270833334,76.92992286682134L767.3828125,31.138275432586727L772.4986979166666,61.03008108139044L777.6145833333333,62.938071060180725L782.73046875,52.126165199279846L787.8463541666667,43.85817127227789L792.9622395833334,58.48605709075934L798.078125,64.21002702713018L803.1940104166666,56.578067111969055L808.3098958333334,69.93399696350103L813.42578125,45.766161251068176L818.5416666666666,62.302037048339905L823.6575520833333,59.7580130577088L828.7734375,52.76208715438849L833.8893229166667,50.21817522048956L839.0052083333334,43.85817127227789L844.12109375,66.11801700592046L849.2369791666666,49.58214120864874L854.3528645833333,48.94610719680792L859.46875,38.770235347747864L864.5846354166667,78.2018788337708L869.7005208333334,53.39812116622931L874.81640625,52.126165199279846L879.9322916666666,43.85817127227789L885.0481770833334,40.67822532653815L890.1640625,38.13420133590704L895.2799479166666,48.94610719680792L900.3958333333333,73.7499769210816L905.51171875,62.302037048339905L910.6276041666667,41.95018129348761L915.7434895833334,43.85817127227789L920.859375,41.95018129348761L925.9752604166666,52.76208715438849L931.0911458333333,55.942033100128235L936.20703125,34.9542553901673L941.3229166666667,41.95018129348761L946.4388020833334,48.31018524169928L951.5546875,57.214101123809876L956.6705729166666,57.214101123809876L961.7864583333334,27.95832948684698L966.90234375,52.76208715438849L972.0182291666666,48.94610719680792L977.1341145833333,43.22213726043707L982.25,41.31425933837897L987.3658854166667,47.03811721801764L992.4817708333334,69.93399696350103L997.59765625,38.13420133590704L1002.7135416666666,36.22621135711676L1007.8294270833333,35.59028940200812L1012.9453125,47.67415122985846L1018.0611979166667,48.31018524169928L1023.1770833333334,36.22621135711676L1028.29296875,40.04219131469733L1033.4088541666667,43.22213726043707L1038.5247395833333,40.67822532653815L1043.640625,62.938071060180725L1048.7565104166665,42.58621530532843L1053.8723958333333,54.03415517807013L1058.98828125,40.67822532653815L1064.1041666666667,43.85817127227789L1069.2200520833333,41.31425933837897L1074.3359375,45.766161251068176L1079.4518229166667,35.59028940200812L1084.5677083333333,55.30611114501959L1089.68359375,47.67415122985846L1094.7994791666667,27.95832948684698L1099.9153645833335,35.59028940200812L1105.03125,60.39404706954962L1110.1471354166667,28.5943634986878L1115.2630208333333,34.31822137832648L1120.37890625,40.04219131469733" style="fill: none;" fill="none"></path></g></g></g></g></g></g><g transform="translate(53, 376)" clip-path="url(#clip_1)"><clipPath id="clip_1"><rect width="1227" height="24"></rect></clipPath><g><g><line x1="0" y1="0" x2="0" y2="5" style="visibility: inherit;" fill="rgb(0, 0, 0)" stroke="rgb(204, 204, 204)" stroke-width="1px"></line><line x1="102.31770833333333" y1="0" x2="102.31770833333333" y2="5" style="visibility: inherit;" fill="rgb(0, 0, 0)" stroke="rgb(204, 204, 204)" stroke-width="1px"></line><line x1="204.63541666666666" y1="0" x2="204.63541666666666" y2="5" style="visibility: inherit;" fill="rgb(0, 0, 0)" stroke="rgb(204, 204, 204)" stroke-width="1px"></line><line x1="306.953125" y1="0" x2="306.953125" y2="5" style="visibility: inherit;" fill="rgb(0, 0, 0)" stroke="rgb(204, 204, 204)" stroke-width="1px"></line><line x1="409.2708333333333" y1="0" x2="409.2708333333333" y2="5" style="visibility: inherit;" fill="rgb(0, 0, 0)" stroke="rgb(204, 204, 204)" stroke-width="1px"></line><line x1="511.5885416666667" y1="0" x2="511.5885416666667" y2="5" style="visibility: inherit;" fill="rgb(0, 0, 0)" stroke="rgb(204, 204, 204)" stroke-width="1px"></line><line x1="613.90625" y1="0" x2="613.90625" y2="5" style="visibility: inherit;" fill="rgb(0, 0, 0)" stroke="rgb(204, 204, 204)" stroke-width="1px"></line><line x1="716.2239583333334" y1="0" x2="716.2239583333334" y2="5" style="visibility: inherit;" fill="rgb(0, 0, 0)" stroke="rgb(204, 204, 204)" stroke-width="1px"></line><line x1="818.5416666666666" y1="0" x2="818.5416666666666" y2="5" style="visibility: inherit;" fill="rgb(0, 0, 0)" stroke="rgb(204, 204, 204)" stroke-width="1px"></line><line x1="920.859375" y1="0" x2="920.859375" y2="5" style="visibility: inherit;" fill="rgb(0, 0, 0)" stroke="rgb(204, 204, 204)" stroke-width="1px"></line><line x1="1023.1770833333334" y1="0" x2="1023.1770833333334" y2="5" style="visibility: inherit;" fill="rgb(0, 0, 0)" stroke="rgb(204, 204, 204)" stroke-width="1px"></line><line x1="1125.4947916666665" y1="0" x2="1125.4947916666665" y2="5" style="visibility: inherit;" fill="rgb(0, 0, 0)" stroke="rgb(204, 204, 204)" stroke-width="1px"></line><line x1="1227.8125" y1="0" x2="1227.8125" y2="5" style="visibility: inherit;" fill="rgb(0, 0, 0)" stroke="rgb(204, 204, 204)" stroke-width="1px"></line></g><g transform="translate(0, 8)"><text x="0" y="0" dx="0em" dy="0.95em" style="text-anchor: middle; visibility: hidden; font-family: Roboto, sans-serif; font-size: 12px; font-weight: 200;" fill="rgb(33, 33, 33)" stroke="none" stroke-width="1px">-20</text><text x="102.31770833333333" y="0" dx="0em" dy="0.95em" style="text-anchor: middle; visibility: inherit; font-family: Roboto, sans-serif; font-size: 12px; font-weight: 200;" fill="rgb(33, 33, 33)" stroke="none" stroke-width="1px">0</text><text x="204.63541666666666" y="0" dx="0em" dy="0.95em" style="text-anchor: middle; visibility: inherit; font-family: Roboto, sans-serif; font-size: 12px; font-weight: 200;" fill="rgb(33, 33, 33)" stroke="none" stroke-width="1px">20</text><text x="306.953125" y="0" dx="0em" dy="0.95em" style="text-anchor: middle; visibility: inherit; font-family: Roboto, sans-serif; font-size: 12px; font-weight: 200;" fill="rgb(33, 33, 33)" stroke="none" stroke-width="1px">40</text><text x="409.2708333333333" y="0" dx="0em" dy="0.95em" style="text-anchor: middle; visibility: inherit; font-family: Roboto, sans-serif; font-size: 12px; font-weight: 200;" fill="rgb(33, 33, 33)" stroke="none" stroke-width="1px">60</text><text x="511.5885416666667" y="0" dx="0em" dy="0.95em" style="text-anchor: middle; visibility: inherit; font-family: Roboto, sans-serif; font-size: 12px; font-weight: 200;" fill="rgb(33, 33, 33)" stroke="none" stroke-width="1px">80</text><text x="613.90625" y="0" dx="0em" dy="0.95em" style="text-anchor: middle; visibility: inherit; font-family: Roboto, sans-serif; font-size: 12px; font-weight: 200;" fill="rgb(33, 33, 33)" stroke="none" stroke-width="1px">100</text><text x="716.2239583333334" y="0" dx="0em" dy="0.95em" style="text-anchor: middle; visibility: inherit; font-family: Roboto, sans-serif; font-size: 12px; font-weight: 200;" fill="rgb(33, 33, 33)" stroke="none" stroke-width="1px">120</text><text x="818.5416666666666" y="0" dx="0em" dy="0.95em" style="text-anchor: middle; visibility: inherit; font-family: Roboto, sans-serif; font-size: 12px; font-weight: 200;" fill="rgb(33, 33, 33)" stroke="none" stroke-width="1px">140</text><text x="920.859375" y="0" dx="0em" dy="0.95em" style="text-anchor: middle; visibility: inherit; font-family: Roboto, sans-serif; font-size: 12px; font-weight: 200;" fill="rgb(33, 33, 33)" stroke="none" stroke-width="1px">160</text><text x="1023.1770833333334" y="0" dx="0em" dy="0.95em" style="text-anchor: middle; visibility: inherit; font-family: Roboto, sans-serif; font-size: 12px; font-weight: 200;" fill="rgb(33, 33, 33)" stroke="none" stroke-width="1px">180</text><text x="1125.4947916666665" y="0" dx="0em" dy="0.95em" style="text-anchor: middle; visibility: inherit; font-family: Roboto, sans-serif; font-size: 12px; font-weight: 200;" fill="rgb(33, 33, 33)" stroke="none" stroke-width="1px">200</text><text x="1227.8125" y="0" dx="0em" dy="0.95em" style="text-anchor: middle; visibility: hidden; font-family: Roboto, sans-serif; font-size: 12px; font-weight: 200;" fill="rgb(33, 33, 33)" stroke="none" stroke-width="1px">220</text></g><line x1="0" y1="0" x2="1227.8125" y2="0" fill="rgb(0, 0, 0)" stroke="rgb(204, 204, 204)" stroke-width="1px"></line></g></g></g></g></svg>