<svg viewBox="0 0 1281 400" xmlns="http://www.w3.org/2000/svg"><g><g><g><g><g><line x1="41.171875" y1="377" x2="36.171875" y2="377" style="visibility: inherit;" fill="rgb(0, 0, 0)" stroke="rgb(204, 204, 204)" stroke-width="1px"></line><line x1="41.171875" y1="335.1111111111111" x2="36.171875" y2="335.1111111111111" style="visibility: inherit;" fill="rgb(0, 0, 0)" stroke="rgb(204, 204, 204)" stroke-width="1px"></line><line x1="41.171875" y1="293.22222222222223" x2="36.171875" y2="293.22222222222223" style="visibility: inherit;" fill="rgb(0, 0, 0)" stroke="rgb(204, 204, 204)" stroke-width="1px"></line><line x1="41.171875" y1="251.33333333333337" x2="36.171875" y2="251.33333333333337" style="visibility: inherit;" fill="rgb(0, 0, 0)" stroke="rgb(204, 204, 204)" stroke-width="1px"></line><line x1="41.171875" y1="209.44444444444446" x2="36.171875" y2="209.44444444444446" style="visibility: inherit;" fill="rgb(0, 0, 0)" stroke="rgb(204, 204, 204)" stroke-width="1px"></line><line x1="41.171875" y1="167.55555555555554" x2="36.171875" y2="167.55555555555554" style="visibility: inherit;" fill="rgb(0, 0, 0)" stroke="rgb(204, 204, 204)" stroke-width="1px"></line><line x1="41.171875" y1="125.66666666666669" x2="36.171875" y2="125.66666666666669" style="visibility: inherit;" fill="rgb(0, 0, 0)" stroke="rgb(204, 204, 204)" stroke-width="1px"></line><line x1="41.171875" y1="83.77777777777781" x2="36.171875" y2="83.77777777777781" style="visibility: inherit;" fill="rgb(0, 0, 0)" stroke="rgb(204, 204, 204)" stroke-width="1px"></line><line x1="41.171875" y1="41.888888888888864" x2="36.171875" y2="41.888888888888864" style="visibility: inherit;" fill="rgb(0, 0, 0)" stroke="rgb(204, 204, 204)" stroke-width="1px"></line><line x1="41.171875" y1="0" x2="36.171875" y2="0" style="visibility: inherit;" fill="rgb(0, 0, 0)" stroke="rgb(204, 204, 204)" stroke-width="1px"></line></g><g transform="translate(31.171875, 0)"><text x="0" y="377" dx="0em" dy="0.3em" style="text-anchor: end; visibility: hidden; font-family: Roboto, sans-serif; font-size: 12px; font-weight: 200;" fill="rgb(33, 33, 33)" stroke="none" stroke-width="1px">0</text><text x="0" y="335.1111111111111" dx="0em" dy="0.3em" style="text-anchor: end; visibility: inherit; font-family: Roboto, sans-serif; font-size: 12px; font-weight: 200;" fill="rgb(33, 33, 33)" stroke="none" stroke-width="1px">0.2</text><text x="0" y="293.22222222222223" dx="0em" dy="0.3em" style="text-anchor: end; visibility: inherit; font-family: Roboto, sans-serif; font-size: 12px; font-weight: 200;" fill="rgb(33, 33, 33)" stroke="none" stroke-width="1px">0.4</text><text x="0" y="251.33333333333337" dx="0em" dy="0.3em" style="text-anchor: end; visibility: inherit; font-family: Roboto, sans-serif; font-size: 12px; font-weight: 200;" fill="rgb(33, 33, 33)" stroke="none" stroke-width="1px">0.6</text><text x="0" y="209.44444444444446" dx="0em" dy="0.3em" style="text-anchor: end; visibility: inherit; font-family: Roboto, sans-serif; font-size: 12px; font-weight: 200;" fill="rgb(33, 33, 33)" stroke="none" stroke-width="1px">0.8</text><text x="0" y="167.55555555555554" dx="0em" dy="0.3em" style="text-anchor: end; visibility: inherit; font-family: Roboto, sans-serif; font-size: 12px; font-weight: 200;" fill="rgb(33, 33, 33)" stroke="none" stroke-width="1px">1</text><text x="0" y="125.66666666666669" dx="0em" dy="0.3em" style="text-anchor: end; visibility: inherit; font-family: Roboto, sans-serif; font-size: 12px; font-weight: 200;" fill="rgb(33, 33, 33)" stroke="none" stroke-width="1px">1.2</text><text x="0" y="83.77777777777781" dx="0em" dy="0.3em" style="text-anchor: end; visibility: inherit; font-family: Roboto, sans-serif; font-size: 12px; font-weight: 200;" fill="rgb(33, 33, 33)" stroke="none" stroke-width="1px">1.4</text><text x="0" y="41.888888888888864" dx="0em" dy="0.3em" style="text-anchor: end; visibility: inherit; font-family: Roboto, sans-serif; font-size: 12px; font-weight: 200;" fill="rgb(33, 33, 33)" stroke="none" stroke-width="1px">1.6</text><text x="0" y="0" dx="0em" dy="0.3em" style="text-anchor: end; visibility: hidden; font-family: Roboto, sans-serif; font-size: 12px; font-weight: 200;" fill="rgb(33, 33, 33)" stroke="none" stroke-width="1px">1.8</text></g><line x1="41.171875" y1="0" x2="41.171875" y2="377" fill="rgb(0, 0, 0)" stroke="rgb(204, 204, 204)" stroke-width="1px"></line></g></g><g transform="translate(41, 0)" clip-path="url(#clip_0)"><clipPath id="clip_0"><rect width="1239" height="377"></rect></clipPath><g><g><g><line x1="0" y1="0" x2="0" y2="377" fill="rgb(0, 0, 0)" stroke="rgb(66, 66, 66)" stroke-width="1px" opacity="0.25"></line><line x1="137.75868055555554" y1="0" x2="137.75868055555554" y2="377" fill="rgb(0, 0, 0)" stroke="rgb(66, 66, 66)" stroke-width="1px" opacity="0.25"></line><line x1="275.5173611111111" y1="0" x2="275.5173611111111" y2="377" fill="rgb(0, 0, 0)" stroke="rgb(66, 66, 66)" stroke-width="1px" opacity="0.25"></line><line x1="413.27604166666663" y1="0" x2="413.27604166666663" y2="377" fill="rgb(0, 0, 0)" stroke="rgb(66, 66, 66)" stroke-width="1px" opacity="0.25"></line><line x1="551.0347222222222" y1="0" x2="551.0347222222222" y2="377" fill="rgb(0, 0, 0)" stroke="rgb(66, 66, 66)" stroke-width="1px" opacity="0.25"></line><line x1="688.7934027777778" y1="0" x2="688.7934027777778" y2="377" fill="rgb(0, 0, 0)" stroke="rgb(66, 66, 66)" stroke-width="1px" opacity="0.25"></line><line x1="826.5520833333333" y1="0" x2="826.5520833333333" y2="377" fill="rgb(0, 0, 0)" stroke="rgb(66, 66, 66)" stroke-width="1px" opacity="0.25"></line><line x1="964.3107638888889" y1="0" x2="964.3107638888889" y2="377" fill="rgb(0, 0, 0)" stroke="rgb(66, 66, 66)" stroke-width="1px" opacity="0.25"></line><line x1="1102.0694444444443" y1="0" x2="1102.0694444444443" y2="377" fill="rgb(0, 0, 0)" stroke="rgb(66, 66, 66)" stroke-width="1px" opacity="0.25"></line><line x1="1239.828125" y1="0" x2="1239.828125" y2="377" fill="rgb(0, 0, 0)" stroke="rgb(66, 66, 66)" stroke-width="1px" opacity="0.25"></line></g><g><line x1="0" y1="377" x2="1239.828125" y2="377" fill="rgb(0, 0, 0)" stroke="rgb(66, 66, 66)" stroke-width="1px" opacity="0.25"></line><line x1="0" y1="335.1111111111111" x2="1239.828125" y2="335.1111111111111" fill="rgb(0, 0, 0)" stroke="rgb(66, 66, 66)" stroke-width="1px" opacity="0.25"></line><line x1="0" y1="293.22222222222223" x2="1239.828125" y2="293.22222222222223" fill="rgb(0, 0, 0)" stroke="rgb(66, 66, 66)" stroke-width="1px" opacity="0.25"></line><line x1="0" y1="251.33333333333337" x2="1239.828125" y2="251.33333333333337" fill="rgb(0, 0, 0)" stroke="rgb(66, 66, 66)" stroke-width="1px" opacity="0.25"></line><line x1="0" y1="209.44444444444446" x2="1239.828125" y2="209.44444444444446" fill="rgb(0, 0, 0)" stroke="rgb(66, 66, 66)" stroke-width="1px" opacity="0.25"></line><line x1="0" y1="167.55555555555554" x2="1239.828125" y2="167.55555555555554" fill="rgb(0, 0, 0)" stroke="rgb(66, 66, 66)" stroke-width="1px" opacity="0.25"></line><line x1="0" y1="125.66666666666669" x2="1239.828125" y2="125.66666666666669" fill="rgb(0, 0, 0)" stroke="rgb(66, 66, 66)" stroke-width="1px" opacity="0.25"></line><line x1="0" y1="83.77777777777781" x2="1239.828125" y2="83.77777777777781" fill="rgb(0, 0, 0)" stroke="rgb(66, 66, 66)" stroke-width="1px" opacity="0.25"></line><line x1="0" y1="41.888888888888864" x2="1239.828125" y2="41.888888888888864" fill="rgb(0, 0, 0)" stroke="rgb(66, 66, 66)" stroke-width="1px" opacity="0.25"></line><line x1="0" y1="0" x2="1239.828125" y2="0" fill="rgb(0, 0, 0)" stroke="rgb(66, 66, 66)" stroke-width="1px" opacity="0.25"></line></g></g></g><g><g><line x1="0" y1="377" x2="1239.828125" y2="377" fill="rgb(0, 0, 0)" stroke="rgb(153, 153, 153)" stroke-width="1.5px"></line></g></g><g><g><line x1="137.75868055555554" y1="0" x2="137.75868055555554" y2="377" fill="rgb(0, 0, 0)" stroke="rgb(153, 153, 153)" stroke-width="1.5px"></line></g></g><g><g><g><g><g><path stroke="rgb(51, 187, 238)" stroke-width="2px" d="M173.02490277777775,-3.999714212429013L173.5759375,0.31647409525542236L175.22904166666666,-4.935855388679689L175.50455902777776,4.219287971334994L177.43318055555554,14.436706672109429L177.98421527777776,13.087816636072167L178.2597326388889,10.724881004960261L179.08628472222222,23.796718470477156L181.01490625,36.4200314138818L181.84145833333332,35.01201050433183L182.39249305555555,32.08183377571071L182.94352777777777,29.321363527146495L184.59663194444443,33.625416262359145L184.87214930555555,29.51255312551211L185.14766666666668,22.74671156583427L186.5252534722222,22.007474413440505L188.45387499999998,28.498277870755985L188.7293923611111,29.26081870605757L189.0049097222222,38.43800102573776L190.10697916666666,39.330634664245196L190.3824965277778,42.33186741913543L190.65801388888892,36.464789505932764L192.58663541666667,33.08836683201706L193.4131875,38.40405258411376L193.68870486111112,41.63244364517834L193.96422222222222,35.89520905595379L194.23973958333335,32.79477630696828L194.79077430555557,29.215638706272884L195.89284375,39.43578811106933L196.44387847222222,45.79949833059364L196.99491319444445,48.966895809396384L198.3725,57.997197293945085L198.6480173611111,51.03822852329218L199.47456944444446,55.69210339811261L200.85215625,61.51887559562354L203.6073298611111,57.647682802561185L204.98491666666666,64.30266137322779L205.2604340277778,58.76025522457821L205.5359513888889,56.06290957289632L208.84215972222222,58.03824643335024L209.11767708333332,62.925512772382355L209.39319444444445,57.19903613158263L212.42388541666668,73.27008290903686L213.25043749999998,70.09062649564763L213.80147222222223,66.16413244128978L214.35250694444446,64.18802504320067L215.45457638888888,71.12248346091116L216.28112847222224,81.16580382713164L217.10768055555556,72.66955940826496L217.65871527777776,81.56095853920368L219.03630208333334,80.50012590837494L219.58733680555557,83.65322739095696L219.86285416666666,81.1729802448888L222.06699305555554,86.25759513533147L222.61802777777777,76.49160270836904L223.72009722222222,83.29955151115698L224.82216666666667,82.10285830889381L225.3732013888889,91.71315065195041L225.64871875,86.17298213146056L226.47527083333333,85.24481372006555L230.60803125,87.9952272015879L230.88354861111114,88.69398531213487L232.26113541666666,81.83849447571954L232.8121701388889,76.66639872023363L233.0876875,80.89743998359317L234.74079166666667,80.2278021656116L235.29182638888886,82.16146037541338L236.39389583333335,90.5492819163949L237.4959652777778,94.50827285000852L237.77148263888887,95.83279590549905L238.047,105.57185709389417L238.3225173611111,105.73011322234161L238.59803472222222,98.64482902336569L238.87355208333335,94.3687806643619L241.90424305555558,100.90253857942527L244.10838194444446,100.12567544350954L245.21045138888888,105.19828746804224L245.7614861111111,101.78295431057455L246.3125208333333,103.03594556760699L247.13907291666666,105.80302509851403L248.51665972222224,102.29077946522784L249.06769444444444,107.46228248173038L250.44528125000002,96.17065256479471L251.82286805555555,99.14862666049781L252.09838541666667,108.34647060346116L253.75148958333332,104.24062893139231L254.02700694444445,103.54886354348535L255.1290763888889,98.62102812136096L257.88425,107.93658212982545L258.1597673611111,107.58160892954561L258.7108020833333,105.10171551603734L259.81287152777776,108.69831652368963L260.0883888888889,109.60835036326297L260.6394236111111,110.3397210586068L261.74149305555557,109.9620090360905L262.29252777777776,110.39483932070725L263.3945972222222,105.92709880319903L264.77218402777777,102.07338096249705L265.8742534722222,109.0158564024087L266.1497708333333,112.9282788088338L266.7008055555556,113.0440472235531L267.2518402777778,111.39457039854425L268.3539097222222,113.47712272233002L268.6294270833333,104.74257086146942L270.0070138888889,106.97404019161172L270.28253125,117.16028451993529L271.9356354166666,116.33720598795026L272.4866701388889,112.94878078275396L273.86425694444443,111.86149303579418L274.9663263888889,118.5826084429534L277.9970173611111,127.83182409028613L278.27253472222225,116.3123191671793L278.5480520833333,109.73401521772159L278.82356944444444,114.38930241807974L279.09908680555554,117.58375598914232L279.37460416666664,125.68688070597997L280.20115625,127.6542773209709L280.4766736111111,117.86855160172969L280.75219097222225,124.44235780688503L284.6094340277778,130.95079676420914L284.8849513888889,132.92194017900547L285.4359861111111,122.47932462838071L285.7115034722222,126.5880940573222L285.9870208333333,116.61037116018444L286.53805555555556,121.37367063820865L287.08909027777776,121.15573665734428L287.640125,123.5539569742989L288.1911597222222,126.86159343048999L289.29322916666666,123.90512276141223L289.8442638888889,126.84949092602425L290.9463333333333,122.87099871689826L292.59943749999996,127.16355838702306L293.1504722222222,126.12494631405387L294.2525416666667,122.16373426792453L295.07909374999997,125.60641410595632L295.6301284722222,124.30912932807743L298.6608194444445,126.31899401975393L298.9363368055555,131.71668399764067L299.7628888888889,133.13347311585264L300.31392361111114,124.86445512898898L300.58944097222223,122.79209956245504L301.41599305555553,133.0220642185555L301.9670277777778,126.64617009737171L303.89564930555554,130.80427291790818L305.27323611111115,136.55839126454563L306.65082291666664,134.86702188009744L306.9263402777778,136.9356641566704L307.477375,131.01655586403976L309.13047916666665,126.73287744428144L309.4059965277778,122.33553239236197L310.2325486111111,125.18408219600335L310.7835833333333,138.44631700864207L311.05910069444445,131.05961363471678L312.16117013888885,137.31835132215699L313.2632395833333,135.35020274610554L314.91634375,147.96775591123176L315.1918611111111,147.53695139469878L316.5694479166667,151.01613688113926L317.12048263888886,138.22123714339983L318.2225520833333,138.17579182285084L319.0491041666667,148.75083867886474L319.60013888888886,144.90470123927415L321.5287604166667,151.29494468752918L322.3553125,150.77945367194502L323.7328993055556,146.57871965121933L324.0084166666666,137.6601003699603L325.11048611111113,135.73282262376895L326.2125555555556,139.61619094890193L328.41669444444443,143.89572175008493L328.96772916666663,147.2329155054105L329.5187638888889,149.41205317588455L329.79428125000004,144.83139756342192L331.1718680555556,147.4160300222925L333.37600694444444,145.2080885168647L334.75359375000005,153.7878996502732L335.3046284722222,152.67295249662382L336.1311805555556,154.79866143548108L336.40669791666664,151.92356231500872L336.9577326388889,154.75828826176559L337.5087673611111,153.0045896170715L337.7842847222222,162.31375094111505L338.33531944444445,146.20932199869003L338.6108368055556,147.04600180309419L339.16187152777775,142.481649132631L339.4373888888889,140.98492210630283L339.71290625,146.66508204520633L341.0904930555555,157.72622466950153L342.1925625,160.32962420239505L342.7435972222222,142.6915744939712L346.0498055555555,144.9003685262031L348.25394444444447,145.9844467501908L348.5294618055555,145.06437394585626L349.63153124999997,146.87990961743577L350.4580833333333,154.22957806882505L351.2846354166667,153.27002028218584L351.5601527777778,149.60035523330177L352.11118749999997,161.71910856630743L352.6622222222222,162.60136482596207L353.2132569444445,163.45409054843472L354.8663611111111,160.66818881405126L359.27463888888894,167.06071309735682L359.55015625,161.9664814368968L359.8256736111111,167.40886560986283L360.10119097222224,158.81266003131114L360.92774305555554,160.70772931278626L363.1318819444444,162.4948305287016L363.40739930555554,154.0871163261101L365.88705555555555,156.75315997116758L366.989125,160.25971101523564L367.2646423611111,165.4114017044241L367.81567708333336,168.50637599887193L368.0911944444444,164.38881905711736L368.9177465277778,168.59173291162216L369.19326388888885,171.10912185981545L370.01981597222226,164.88525360867186L370.5708506944444,166.17892780728025L372.2239548611111,169.07253509193126L373.8770590277778,160.88491325965535L374.7036111111111,151.01148321927863L375.2546458333333,161.69160543833274L376.3567152777778,165.6387500912527L377.4587847222222,166.40267589195048L377.7343020833333,166.6080284373835L381.31602777777783,171.44322862566762L381.8670625,176.88622777003133L383.5201666666667,174.9981648200371L384.34671875,173.4060857260397L384.89775347222223,169.415736842669L385.17327083333333,167.83266892410998L385.9998229166667,172.81617794129528L386.27534027777773,164.1396751504736L387.65292708333334,162.51839951484982L387.92844444444444,167.10425832158074L388.4794791666667,167.35178559129216L388.75499652777773,162.64698099688889L390.68361805555554,166.13198383408508L390.9591354166667,175.0803957421379L391.5101701388889,171.4642832911622L393.4387916666667,162.72523826578924L393.9898263888889,162.40482710995744L394.26534375,171.85062600558746L394.54086111111116,179.64610441027202L397.2960347222222,177.52566908696164L399.22465625,173.0436322729388L400.0512083333333,176.37571125537414L400.87776041666666,183.94325532899455L402.2553472222222,181.43404020036286L403.08189930555557,184.2916407654585L404.18396875,188.07374831987164L404.4594861111111,174.8170587516988L407.2146597222222,179.64627471946667L407.4901770833333,178.87514689130714L408.3167291666666,181.16271985840012L409.4187986111111,179.85190250571628L410.5208680555556,178.40281864991755L411.0719027777778,175.98052075234963L411.62293750000003,171.68866640233415L412.17397222222223,173.8421409958805L413.0005243055556,180.11098713283965L413.8270763888889,182.79054323000847L414.10259375000004,181.48959703211534L414.3781111111111,185.0879834987594L414.92914583333334,181.57079820686482L416.8577673611111,183.01488215107727L417.40880208333334,184.2840569028663L419.3374236111111,182.56682110153744L420.43949305555554,181.60096126325126L420.9905277777778,189.29943913204457L422.91914930555555,190.07056523551333L423.19466666666665,193.6069274443442L423.4701840277778,184.5859693930049L425.12328819444446,190.14510607858162L425.9498402777778,191.39546359728237L428.7050138888889,189.1453667073476L429.2560486111111,181.34725917379888L429.80708333333337,180.75795794394776L430.3581180555555,194.10410213192603L432.56225694444447,191.17436280613657L432.8377743055555,188.3924979957538L433.11329166666667,186.5931274899733L433.38880902777777,187.6221792358824L434.4908784722222,192.65192134730032L435.3174305555555,190.5334115452025L436.9705347222222,187.89843378489607L437.2460520833334,186.53573494105112L438.3481215277778,182.60113006203514L440.2767430555555,187.39016935581782L441.3788125,187.98213724308104L441.6543298611111,187.90575087607968L441.92984722222224,192.7334239197238L442.75639930555553,195.17018220300264L443.3074340277778,198.7142107389192L443.85846875,192.04397957004696L444.1339861111111,197.6535704773653L444.68502083333334,199.44676292325323L446.6136423611111,201.79855402540323L446.88915972222225,200.8553421484632L447.71571180555554,196.73200380196062L447.9912291666667,198.619352734426L448.54226388888884,182.66259880377547L448.81778125,180.78951116113083L449.64433333333335,174.48300835382537L450.19536805555555,190.29221303199685L451.5729548611111,200.49158801927476L453.50157638888885,201.6245544252454L454.8791631944444,224.50472511105357L455.15468055555556,216.5176644108518L457.90985416666666,212.47185805662747L458.46088888888886,211.37543354101877L459.28744097222227,209.31350891789538L461.2160625,203.43451479872508L461.7670972222223,196.61949334555464L462.0426145833333,197.91354161773944L462.3181319444444,199.01590423615337L463.42020138888887,191.82261583770915L463.9712361111111,189.83729488988084L465.3488229166667,190.71443851659978L466.45089236111113,190.87265051393544L466.72640972222223,195.7270200284981L467.5529618055556,197.21666126975728L469.75710069444443,202.37577708414116L470.0326180555556,206.29244498322953L470.3081354166667,203.91283983601133L472.23675694444444,202.18748145866195L473.3388263888889,206.41767467002748L474.71641319444444,209.73047913211326L475.2674479166667,212.26328211484997L476.36951736111115,208.52623444737847L480.50227777777775,206.36412227781392L481.0533125,209.20233390972746L481.8798645833333,213.88980267591717L482.15538194444446,217.86694334303473L482.43089930555556,210.12940014017698L482.70641666666666,208.5490905930716L483.2574513888889,208.40280322506072L484.0840034722222,210.8324963956849L484.91055555555556,206.5876343328952L485.18607291666666,207.2449798419263L486.8391770833333,207.27026931781023L487.94124652777776,209.05940973960435L489.3188333333333,211.23761588323626L489.5943506944445,209.00120515154242L489.86986805555557,216.037293287607L490.9719375,215.01580914076357L491.7984895833333,208.81776376164336L493.1760763888889,199.64196593520867L494.0026284722222,208.7186514077057L495.3802152777778,207.54267314962038L495.6557326388889,205.25529103214433L496.48228472222223,210.23660806987948L497.5843541666666,206.66227764922274L498.6864236111111,201.17062623987005L500.06401041666663,209.43927670399657L501.44159722222224,205.21863163572073L501.9926319444445,206.61391217281667L502.8191840277778,206.3534594250601L503.0947013888889,210.58647859928297L505.5743576388889,212.71404302884181L508.32953124999995,209.38796663477774L509.15608333333336,200.69647173732704L510.80918749999995,197.87856613122867L512.4622916666667,208.59394497521126L513.5643611111111,206.22205476868592L513.8398784722223,206.38064090422523L514.1153958333333,211.2826685826683L514.6664305555555,215.6303470113962L516.5950520833334,216.23136933784883L516.8705694444444,218.84032622792375L517.9726388888889,212.68572022806438L519.6257430555555,219.21353915308416L520.7278125,214.27290565621223L521.5543645833334,214.26592742977033L522.6564340277778,216.82489202565444L528.16678125,217.45834672935698L529.2688506944444,213.776815117989L532.0240243055556,219.3920016788341L533.4016111111112,227.0798706195492L533.9526458333333,227.84981965909833L534.2281631944444,220.40304297275932L534.5036805555555,225.11612819208588L534.7791979166667,227.82891307351656L536.9833368055556,227.35765735222165L538.6364409722222,226.03996681585537L539.1874756944444,229.18603342025258L539.4629930555556,234.39538430057564L540.0140277777778,230.75071698423451L540.2895451388889,228.4598261554811L543.5957534722222,224.65281120378413L543.8712708333333,221.2760546041514L544.4223055555556,228.2356645881922L546.3509270833333,227.4228145227043L547.4529965277777,228.68478261832973L548.2795486111112,226.4240548230815L549.3816180555556,223.26345045141693L550.4836875,223.69223703341407L550.7592048611111,218.80562864182426L551.5857569444445,222.27680605911036L553.5143784722222,222.7715153643591L553.7898958333333,226.11510729486363L554.0654131944444,218.307479045955L554.6164479166667,227.45165023005737L555.443,228.9023501523141L558.7492083333333,229.40827130496658L560.4023125,232.36006552973151L561.2288645833333,232.01243598394183L561.5043819444445,223.39599736809288L562.3309340277777,225.74280715420247L564.2595555555556,228.9500821563334L565.0861076388888,234.28504317068115L565.361625,232.68255936673447L568.1167986111111,233.66025224006205L568.9433506944445,223.51073191171506L569.2188680555556,227.46129532817375L569.7699027777778,233.53484112254142L570.8719722222222,232.61214228211657L571.1474895833334,238.82711300429327L571.9740416666666,236.22775628473332L573.0761111111111,229.56143385884081L574.4536979166667,226.78729595903042L577.2088715277778,229.2825707670525L577.4843888888889,231.7366985552065L577.7599062500001,236.09833531812143L578.8619756944445,228.07777386977796L579.4130104166667,225.57317371545287L581.6171493055556,226.30077036910745L586.0254270833334,231.39021842098333L587.1274965277778,237.742213400036L588.2295659722222,238.35770657635194L588.7806006944445,242.0654367809747L589.6071527777777,235.3846222681952L591.2602569444444,239.91692260840452L591.5357743055555,246.00038895040765L593.4643958333334,243.18062752701852L595.6685347222223,241.4762618435503L596.7706041666667,242.59221283487295L597.872673611111,241.67597845066015L598.9747430555556,240.25360090587918L599.8012951388888,236.94459378685522L600.3523298611111,238.4383319163943L602.0054340277778,236.92284751138175L602.2809513888889,241.4064652825791L602.55646875,241.29817860092442L602.8319861111111,240.62742470561892L604.2095729166667,244.08698981452972L604.4850902777778,244.13898503849305L604.7606076388888,247.1466893465152L606.6892291666667,244.29203512799393L607.2402638888889,249.90858771720517L608.0668159722222,246.39592162560814L608.6178506944444,238.27014186522868L608.8933680555556,241.09146911493508L609.1688854166666,247.61523531498128L609.4444027777778,249.71518045769432L611.0975069444444,246.6727943334028L612.1995763888889,243.74208648481238L612.47509375,243.10452280263397L613.0261284722222,242.889193437088L614.4037152777778,240.55854170814462L616.6078541666667,240.51732121285983L616.8833715277777,244.53766471637266L617.9854409722222,244.3899401230526L618.5364756944444,242.35335354689894L619.9140625,237.16124894496951L620.7406145833334,240.39885862171275L621.0161319444445,244.50688506728847L624.0468229166667,242.32248612383864L626.8019965277778,247.96259130720216L627.35303125,248.24031008823397L628.1795833333334,242.58975142498355L629.2816527777777,236.98626224222173L629.5571701388889,244.36185777730512L629.8326875,246.81771613287984L630.6592395833334,255.98607377618717L631.4857916666666,252.8984861239404L632.5878611111111,254.63869904929723L633.6899305555555,253.68262752631568L634.2409652777777,253.16916681306455L638.9247604166667,248.533340006929L640.0268298611112,252.11584197870576L640.8533819444444,252.71647543279667L641.1288993055555,254.54317994059133L641.955451388889,255.17174694026116L642.5064861111111,254.43035809845492L643.6085555555555,255.91198439721055L644.1595902777777,257.1761251886117L646.6392465277778,253.3490925086528L647.7413159722223,251.86994164968138L650.2209722222223,251.24383823080953L651.5985590277778,254.87332859041746L651.8740763888889,254.65936457953327L652.14959375,254.62388607831352L654.0782152777778,255.67200152658353L655.7313194444444,258.3768820691416L656.5578715277778,255.35182898941827L657.3844236111112,253.41075508020236L657.9354583333333,247.2466137448928L659.8640798611111,244.92418507178513L660.9661493055555,248.9970563696219L661.7927013888889,250.956070746432L663.4458055555556,257.15426625470667L663.7213229166666,267.44681311775787L663.9968402777778,262.4994726248356L664.8233923611111,266.35116676893466L666.2009791666667,267.67171366722033L667.8540833333333,265.3413086635509L668.1296006944444,269.5108555007229L670.8847743055555,262.77072834593883L671.1602916666667,260.0508801808659L672.2623611111112,260.8165718266456L672.5378784722221,256.2042931552847L672.8133958333333,258.37021353327617L673.6399479166666,265.8008174527688L674.190982638889,259.8102250036996L675.8440868055555,261.4799594762366L676.6706388888889,260.88552871109357L677.7727083333333,260.1874715890168L678.0482256944445,256.9159101277663L678.5992604166667,261.50992187308384L678.8747777777778,264.23025555347334L679.4258125,260.36858286752596L682.4565034722222,260.35778295242034L683.0075381944445,255.0995571038387L685.2116770833333,257.5428395985984L685.4871944444444,264.49427286038673L686.3137465277778,268.23454445285853L693.4771979166667,268.4576151391859L694.5792673611111,261.3323865850036L695.9568541666667,262.6551029276409L697.3344409722222,262.17837995902715L698.4365104166667,260.1158577015295L698.7120277777778,261.03162573107517L699.8140972222221,268.6051513148387L700.6406493055556,267.5456905877415L701.7427187499999,266.66989456178356L703.6713402777779,267.48309639232326L703.9468576388889,264.5882904504621L704.2223749999999,265.09062717341027L707.2530659722222,257.86516942040373L707.5285833333334,266.1512687134122L708.0796180555556,271.5915050450058L709.1816875,263.9105534175225L710.5592743055556,269.84878325311803L712.7634131944444,268.1558106386901L713.3144479166667,269.1999741103793L713.8654826388889,271.30974471939203L715.5185868055556,269.0324474409907L715.7941041666667,269.89513748567106L716.3451388888889,270.695985366985L717.1716909722222,276.00418069036556L717.7227256944444,269.5911429687644L718.8247951388888,267.65494911193014L719.1003125,269.144055993605L720.2023819444445,272.7281718307889L720.4778993055556,269.39947942155874L721.5799687499999,272.2213916350235L721.8554861111111,274.34119740803686L722.6820381944444,272.0421745969963L722.9575555555556,273.03671202756965L723.7841076388888,272.87969137382646L726.2637638888888,268.5100035259255L727.0903159722222,265.17033880751757L729.8454895833333,266.8210107248445L732.6006631944445,277.6849100897893L733.4272152777777,276.7784779495111L735.3558368055556,278.57252388023664L737.2844583333333,270.4983631977836L740.3151493055556,272.94654181324506L740.8661840277778,276.44940961632966L742.2437708333333,273.73120866557264L743.6213576388889,272.70278422902874L744.1723923611111,269.70124207062037L744.7234270833334,274.2192131354429L746.37653125,269.6631798205519L746.9275659722223,278.868241314886L747.7541180555556,277.52962598954184L748.0296354166667,280.215054472149L749.6827395833334,277.9750002754228L750.7848090277777,278.8286167859532L753.8154999999999,281.13818064342263L754.6420520833334,278.46342558800706L755.4686041666666,280.46052369690983L756.0196388888888,276.17405534516007L759.6013645833334,278.63758989080594L761.5299861111112,281.4098176844539L762.3565381944445,266.30533066450624L764.8361944444445,268.8170733091113L766.21378125,274.55808800811167L769.2444722222223,282.8395565636896L771.4486111111112,285.46206842390353L772.8261979166666,280.9851745875338L773.1017152777778,278.72319496475944L774.4793020833333,281.83085284182073L775.8568888888889,282.03851953210943L776.6834409722222,279.88964853522685L778.0610277777778,274.7284212725279L780.2651666666666,277.8720627781567L781.09171875,283.66281012834014L782.4693055555555,280.963477083887L783.0203402777778,280.8436509516245L783.2958576388888,279.3378414387018L783.571375,280.46078110582687L784.1224097222223,282.6283013791664L785.7755138888889,285.4007806840036L787.1531006944443,284.9278850380742L787.7041354166666,290.68728798904334L791.5613784722223,287.76117715604096L792.9389652777778,287.3371966430233L794.5920694444444,287.48455398571605L795.9696562500001,287.4520971454707L796.5206909722223,284.59076180655256L797.0717256944444,280.43898836995925L797.3472430555555,280.2588668783717L798.1737951388889,286.7678523996268L798.4493125,286.88811187379326L803.1331076388889,290.1874981137745L806.7148333333332,294.5567132665958L807.5413854166667,297.934262526752L808.6434548611112,295.69033513959863L808.9189722222222,298.73959385452645L809.7455243055555,288.74250276875614L810.2965590277778,288.67450688145493L810.572076388889,289.23269751784363L813.8782847222222,293.97008568052087L816.0824236111112,289.66048174568857L816.6334583333332,290.34880686681777L816.9089756944444,288.0851446402946L818.0110451388889,287.48786614017956L819.1131145833333,285.2272880892591L820.2151840277778,289.0409103736992L822.1438055555556,289.39023016261683L822.4193229166667,288.7984554882239L823.5213923611112,293.5402068657247L824.6234618055555,292.56066436676923L826.0010486111112,297.0536059260227L826.5520833333333,294.024329306541L827.3786354166666,293.5728922960972L827.9296701388889,287.67487449447543L828.2051875000001,287.7771768298428L828.7562222222222,291.5659746801861L829.3072569444444,290.5550015481583L830.1338090277778,293.55243114504844L831.2358784722221,291.25629711340713L831.5113958333333,286.7231858211872L831.7869131944444,285.6386599881322L832.3379479166666,291.2591974383317L832.8889826388889,292.09172318519154L834.2665694444444,293.7958688691384L834.8176041666667,298.8892661836157L835.0931215277778,297.8494569060384L837.0217430555556,299.4400960523195L837.5727777777778,295.5241805319307L838.399329861111,294.77651790936034L844.4607118055555,295.093887645293L844.7362291666667,294.27466968063504L845.2872638888889,289.8602776105377L847.2158854166667,296.9541179575957L847.766920138889,293.72694130172954L848.0424375000001,292.8762893483875L849.4200243055556,295.65813719333903L849.6955416666667,294.84925927315504L849.9710590277779,297.8018182558147L850.7976111111111,296.9404373008738L851.0731284722222,292.76825911567323L851.8996805555556,288.9701085904515L853.8283020833333,295.62035029976556L854.3793368055556,299.11718054919834L854.9303715277778,299.9223101607856L855.756923611111,299.9332407875L858.7876145833333,300.7878029218531L859.0631319444444,299.29986154397955L859.3386493055556,294.62373259348715L861.5427881944445,293.20865505016343L861.8183055555555,294.28659494697285L863.1958923611111,295.1828963000331L863.4714097222222,295.0492900354914L863.7469270833333,295.5725387261263L864.0224444444444,296.6076606573897L864.5734791666667,297.967179204094L864.8489965277778,300.39086415274994L865.1245138888889,300.31665346167915L865.9510659722222,299.9691736845718L868.9817569444444,298.4177618592111L870.634861111111,298.77455768666096L871.1858958333333,300.56806590234766L873.3900347222223,293.9760012207295L873.6655520833333,296.13181995153946L873.9410694444445,299.365128525896L874.4921041666668,304.12577481132274L876.4207256944445,300.1874313497237L877.2472777777779,299.60412709509814L877.7983125,286.602719445599L878.6248645833333,296.05026980215683L879.1758993055556,299.47549500847487L879.7269340277778,300.3144847823922L882.2065902777779,301.87158648480107L883.3086597222222,302.0480146810625L883.8596944444445,297.23691540590215L884.4107291666667,291.7028332489607L884.9617638888889,292.3527388495928L885.2372812499999,295.3578265289766L886.3393506944444,289.6745694294421L886.6148680555556,293.96928010207836L886.8903854166667,301.69713760243644L888.2679722222222,300.09378134240114L889.6455590277777,302.0853244286542L889.9210763888889,299.1078565676734L891.0231458333334,299.66748795666643L892.4007326388888,302.40093974128376L892.67625,302.5920788928503L892.9517673611111,306.78156475598087L893.2272847222222,301.8238173427649L893.7783194444445,302.51766651022575L894.0538368055556,299.4038170604794L896.2579756944444,299.13935904012783L896.5334930555556,301.6393073404895L896.8090104166668,301.2783869521194L898.1865972222222,306.9513686295838L898.4621145833333,302.97369488986607L899.5641840277777,304.2590962265667L900.3907361111111,304.92314060484455L901.2172881944444,309.62534859551045L901.7683229166668,306.74553593328096L902.3193576388888,302.5846685270299L903.1459097222222,297.49586421184057L903.4214270833334,301.5838998115002L904.7990138888889,306.1660410311715L905.07453125,303.7627341834841L908.3807395833334,301.3350068767418L908.9317743055556,306.08806302385824L912.5135,304.12590990737783L912.7890173611111,306.12864211829594L915.8197083333333,304.0699337010177L916.0952256944445,302.64557315218L918.5748819444445,302.99994392644567L919.1259166666666,306.5130472534635L919.6769513888888,307.0315288926737L920.5035034722223,308.15538218968567L921.3300555555555,304.76172546160296L922.1566076388889,305.898664413895L923.2586770833334,303.9655536341039L923.5341944444446,306.9733519921456L924.91178125,300.3974898015644L925.4628159722223,304.1558559298295L926.0138506944445,300.0819746801456L926.2893680555555,304.1281304726521L927.3914375,308.8136801449834L927.9424722222222,308.605236206819L928.7690243055555,305.24627789982986L930.9731631944445,308.3933991910083L931.5241979166666,310.9113304859371L931.7997152777778,310.7867682947963L932.35075,308.59168951357896L933.7283368055555,307.98988512741823L934.2793715277777,309.2138634365702L934.83040625,311.76244265753127L935.3814409722222,312.6042337578289L937.5855798611111,310.45123459535023L939.78971875,307.29818619405864L940.0652361111112,308.0583363546536L940.6162708333334,306.0039842801786L940.8917881944444,308.49797803360536L941.7183402777778,304.8491706555319L942.269375,303.57076870167975L942.5448923611111,306.9199039160427L943.3714444444444,308.20821482455034L945.0245486111112,309.4841686676858L946.1266180555555,306.1255000122273L946.4021354166666,311.3320779932271L950.2593784722222,308.1921697682445L951.0859305555555,310.1329080425153L951.912482638889,309.7123649693996L952.7390347222223,303.0288454360249L953.8411041666667,303.6316429601665L954.66765625,308.30474046494567L954.9431736111111,312.8416660763383L955.2186909722222,316.41062675077416L956.8717951388888,311.8954408072288L958.2493819444444,317.20795942230814L958.5248993055556,316.50633819762476L959.9024861111111,312.0337930604964L960.4535208333333,311.49443913675907L962.3821423611112,312.635373515949L963.2086944444444,313.97519456728224L963.7597291666666,314.20893425309345L964.0352465277778,311.5329262237239L964.5862812500001,313.83054058938814L964.8617986111111,311.3585644316053L965.4128333333333,316.09887342560546L966.2393854166667,311.05544539304196L967.0659375,316.0417132841909L969.2700763888889,311.49265727471163L969.5455937500001,310.44803066494575L970.9231805555555,317.1732655187333L972.02525,316.48438832083644L972.3007673611112,312.2188294068136L973.6783541666666,314.775303187744L977.2600798611112,315.1112710412996L977.5355972222221,311.0292692779826L977.8111145833333,312.026849954618L978.0866319444444,310.15619288177203L980.5662881944444,311.7012403505499L982.4949097222221,317.9874458516776L983.3214618055555,313.35801958803506L984.6990486111112,318.5643976131264L985.5256006944444,309.9291707343039L987.1787048611112,312.18137279216177L987.4542222222221,314.5634040948905L987.7297395833333,312.28521056741084L989.107326388889,308.8929701526473L990.2093958333332,310.6827810030221L990.7604305555556,311.119551134039L991.5869826388889,315.53972788435624L992.6890520833333,320.1403437833267L992.9645694444445,318.41718557293217L993.2400868055555,317.7136385952996L993.7911215277778,318.8427925165501L994.8931909722222,314.73384245703L995.1687083333333,312.54413356530955L995.7197430555556,318.6378422732715L995.9952604166667,312.72178689241457L997.097329861111,315.76803945064574L997.3728472222222,313.8916769127317L997.6483645833333,312.66107984186823L999.025951388889,310.3441722407702L999.5769861111111,313.11546305903374L1002.3321597222222,315.2269399979361L1002.6076770833333,316.7930293716843L1003.7097465277778,319.1771681635956L1004.26078125,318.0938935542399L1005.6383680555556,318.5296077965276L1006.1894027777778,317.81280093820357L1007.015954861111,318.47421331066766L1007.5669895833333,317.4361082432865L1010.3221631944444,315.18887507825286L1011.1487152777778,320.56791722654157L1011.975267361111,318.7272754185131L1013.3528541666667,314.95327892604524L1014.1794062499999,312.26026012256904L1015.8325104166667,314.44695322102734L1016.6590624999999,317.3381176640444L1017.2100972222222,315.74276119900196L1018.5876840277779,314.337878535782L1019.13871875,315.6509368231132L1020.2407881944445,317.8189475979548L1020.5163055555556,320.57046618074355L1022.7204444444444,325.3247043100275L1023.8225138888889,324.6911250595616L1024.0980312499998,322.70490123562877L1024.9245833333334,318.3640978439621L1025.4756180555555,319.2591118980497L1026.0266527777778,317.82391736058025L1027.4042395833333,322.55357201849665L1028.506309027778,320.83071925613433L1029.6083784722223,320.9598868074406L1030.7104479166667,318.24908936051196L1031.2614826388888,318.2659340158098L1032.9145868055555,320.31338706609233L1036.220795138889,319.4650236877929L1036.771829861111,317.8493562620095L1037.3228645833333,319.40281442622944L1038.1494166666666,321.8889128886232L1038.97596875,320.7835017820407L1039.8025208333333,316.2732382802293L1040.0780381944444,324.295658501606L1041.455625,321.4671721136297L1043.6597638888888,322.16593308502786L1045.3128680555556,324.99123179997946L1046.139420138889,325.1797250203116L1046.4149375,322.7933233832413L1048.6190763888887,319.1937397115485L1050.8232152777778,318.65813242685465L1053.3028715277778,323.38875469076964L1054.4049409722222,325.89589873987774L1056.3335625,322.87438581542506L1057.9866666666667,322.00586222503387L1058.5377013888888,322.12824620011395L1059.3642534722221,322.7084714351936L1059.9152881944444,321.5653318948851L1061.5683923611111,320.6219036068238L1062.1194270833334,322.58592092574605L1062.3949444444445,321.9723254006629L1064.0480486111112,323.6737414317245L1064.5990833333333,324.73960036537534L1064.8746006944446,325.203409117138L1065.1501180555556,322.39534918567074L1066.2521875,320.7717690394354L1066.527704861111,318.3374460666331L1066.8032222222223,318.87732121256045L1067.3542569444444,319.7553899408469L1068.1808090277777,320.3847311727855L1068.73184375,320.15132828112365L1070.1094305555557,322.4642542660258L1070.3849479166665,324.5285452779147L1071.2115,325.0069900293093L1072.5890868055556,327.1058597044844L1072.8646041666666,328.617228180768L1073.69115625,325.1205081155179L1075.0687430555556,324.7757196021908L1075.6197777777777,327.98610264748663L1076.446329861111,330.6388570230623L1076.7218472222223,330.2878072920957L1076.9973645833334,327.6507703977934L1077.8239166666667,327.18809848270814L1078.65046875,328.0938193627053L1079.4770208333334,330.0972894532858L1080.5790902777778,327.74937694953815L1081.6811597222222,329.8474573083603L1082.2321944444445,329.4904556346665L1083.60978125,325.4399389588473L1083.8852986111112,323.73157317289207L1084.4363333333333,324.1476095521691L1085.2628854166667,322.8083316514107L1086.6404722222223,324.3494588498467L1087.1915069444444,325.18238502726126L1089.3956458333334,325.0864033625301L1089.6711631944445,331.10365622064796L1090.7732326388889,327.87707001460393L1091.3242673611112,330.33812663716424L1092.7018541666666,327.12344522467L1093.252888888889,325.8245945100762L1093.803923611111,326.6898406103121L1094.3549583333333,327.4937164432062L1095.1815104166667,321.0973779626441L1096.5590972222224,321.350261712139L1096.8346145833334,326.21395315836446L1097.1101319444444,326.9174685392083L1097.3856493055555,324.97853995707106L1097.6611666666665,328.72802931343074L1097.9366840277778,328.96379264955453L1099.0387534722222,326.9701120634096L1099.5897881944443,325.5735951570203L1100.1408229166666,328.9622399599537L1100.967375,328.8129993857322L1101.7939270833333,331.0531508686304L1102.0694444444443,328.6563452353705L1102.8959965277777,327.47336083078164L1105.6511701388888,327.7190387731221L1105.9266875,329.1636411121742L1107.3042743055555,331.7910302456306L1107.5797916666666,330.6318913379297L1109.2328958333335,329.5594877502049L1110.610482638889,332.3605939693353L1111.7125520833333,328.74420162521415L1111.9880694444444,326.55249698979554L1112.8146215277777,329.7274960631835L1113.36565625,329.77715646354596L1113.641173611111,329.4686637707248L1114.1922083333332,327.41826948648855L1115.5697951388888,328.3555146926876L1115.8453125,328.9175509682505L1116.9473819444445,326.6790174950552L1118.0494513888889,326.67362808376237L1118.6004861111112,325.6205965444162L1119.4270381944443,324.423615723732L1120.2535902777777,328.1658298756643L1121.0801423611113,331.92635587237726L1122.1822118055554,330.24266484342814L1122.7332465277777,328.36031516304627L1123.008763888889,330.72491353829645L1123.8353159722224,326.8283089046475L1124.1108333333332,326.30494034027504L1125.2129027777778,329.9343451583511L1126.0394548611112,327.3312919584721L1126.3149722222222,326.23926270955326L1126.5904895833332,325.97660393687204L1127.1415243055555,326.9590786182543L1129.3456631944443,332.26051713329514" style="fill: none;" fill="none"></path></g></g></g></g><g opacity="0.2"><g><g><g><path stroke="rgb(51, 187, 238)" stroke-width="2px" d="M172.47386805555556,-3.1771328184339644L173.02490277777775,6.865110251638615L173.5759375,6.790756371286189L175.22904166666666,-12.814349479145456L175.50455902777776,17.952002869711976L177.43318055555554,29.762834628423082L177.98421527777776,11.06448158952924L178.2597326388889,7.18047756618926L179.08628472222222,43.404474642541686L181.01490625,55.355000813802114L181.84145833333332,32.89997914102344L182.39249305555555,27.686568684048147L182.94352777777777,25.180658155017447L184.59663194444443,40.08149536450707L184.87214930555555,23.343258420626338L185.14766666666668,12.597949226697313L186.5252534722222,20.898618684874634L188.45387499999998,38.23448305659826L188.7293923611111,30.404629959000488L189.0049097222222,52.2037745051914L190.10697916666666,40.6695851220025L190.3824965277778,46.83371655146282L190.65801388888892,27.664172636138062L192.58663541666667,28.023732821146663L193.4131875,46.37758121225568L193.68870486111112,46.47503023677404L193.96422222222222,27.289357172118287L194.23973958333335,28.144127183490347L194.79077430555557,23.84693230523004L195.89284375,54.76601221826343L196.44387847222222,55.345063659879884L196.99491319444445,53.71799202760064L198.3725,71.54264952076807L198.6480173611111,40.59977536731298L199.47456944444446,62.67291571034326L200.85215625,70.25903389188977L203.6073298611111,51.84089361296759L204.98491666666666,74.28512922922772L205.2604340277778,50.44664600160388L205.5359513888889,52.01689109537335L208.84215972222222,61.00125172403125L209.11767708333332,70.25641228093042L209.39319444444445,48.60932117038305L212.42388541666668,97.3766530752182L213.25043749999998,65.32144187556372L213.80147222222223,60.2743913597531L214.35250694444446,61.223863946066956L215.45457638888888,81.52417108747693L216.28112847222224,96.23078437646228L217.10768055555556,59.925192779964895L217.65871527777776,94.89805723561182L219.03630208333334,78.90887696213194L219.58733680555557,88.38287961483002L219.86285416666666,77.4526095257865L222.06699305555554,93.8845174709956L222.61802777777777,61.84261406792535L223.72009722222222,93.5114747153388L224.82216666666667,80.30781850549909L225.3732013888889,106.12858916653528L225.64871875,77.86272935072583L226.47527083333333,83.85256110297308L230.60803125,92.12084742387138L230.88354861111114,89.7421224779553L232.26113541666666,71.55525822109648L232.8121701388889,68.90825508700476L233.0876875,87.24400187863245L234.74079166666667,79.22334543863934L235.29182638888886,85.06194769011603L236.39389583333335,103.13101422786713L237.4959652777778,100.44675925042895L237.77148263888887,97.8195804887348L238.047,120.18044887648688L238.3225173611111,105.9674974150128L238.59803472222222,88.01690272490185L238.87355208333335,87.9547081258562L241.90424305555558,110.70317545202045L244.10838194444446,98.96038073963591L245.21045138888888,112.80720550484129L245.7614861111111,96.65995457437305L246.3125208333333,104.91543245315552L247.13907291666666,109.95364439487457L248.51665972222224,97.02241101529864L249.06769444444444,115.21953700648413L250.44528125000002,79.23320768939124L251.82286805555555,103.61558780405255L252.09838541666667,122.14323651790619L253.75148958333332,98.081866423289L254.02700694444445,102.511215461625L255.1290763888889,91.22927498817444L257.88425,121.90991314252216L258.1597673611111,107.0491491291258L258.7108020833333,101.38187539577484L259.81287152777776,114.09321803516814L260.0883888888889,110.97340112262305L260.6394236111111,111.43677710162268L261.74149305555557,109.39544100231596L262.29252777777776,111.04408474763233L263.3945972222222,99.22548802693683L264.77218402777777,96.29280420144397L265.8742534722222,119.42956956227619L266.1497708333333,118.79691241847144L266.7008055555556,113.2176998456319L267.2518402777778,108.92035516103107L268.3539097222222,116.60095120800867L268.6294270833333,91.64074307017859L270.0070138888889,110.32124418682524L270.28253125,132.43965101242065L271.9356354166666,115.10258818997278L272.4866701388889,107.86614297495947L273.86425694444443,110.23056141535443L274.9663263888889,128.66428155369232L277.9970173611111,141.70564756128522L278.27253472222225,99.03306178251904L278.5480520833333,99.86655929353503L278.82356944444444,121.37223321861693L279.09908680555554,122.3754363457362L279.37460416666664,137.84156778123645L280.20115625,130.6053722434574L280.4766736111111,103.18996302286786L280.75219097222225,134.3030671146181L284.6094340277778,140.7134552001953L284.8849513888889,135.8786553012L285.4359861111111,106.8154013024436L285.7115034722222,132.75124820073444L285.9870208333333,101.64378681447772L286.53805555555556,128.51861985524494L287.08909027777776,120.82883568604785L287.640125,127.15128744973077L288.1911597222222,131.8230481147766L289.29322916666666,119.47041675779553L289.8442638888889,131.26604317294226L290.9463333333333,116.90326040320929L292.59943749999996,133.6023978922102L293.1504722222222,124.56702820460004L294.2525416666667,116.22191619873047L295.07909374999997,130.77043386300403L295.6301284722222,122.36320216125914L298.6608194444445,129.3337910572688L298.9363368055555,139.81321896447076L299.7628888888889,135.25865679317053L300.31392361111114,112.46092814869353L300.58944097222223,119.68356621265411L301.41599305555553,148.36701120270624L301.9670277777778,117.08232891559601L303.89564930555554,137.041427148713L305.27323611111115,145.18956878450183L306.65082291666664,132.3299678034253L306.9263402777778,140.03862757152984L307.477375,122.13789342509375L309.13047916666665,120.30735981464386L309.4059965277778,115.73951481448279L310.2325486111111,129.45690690146552L310.7835833333333,158.3396692276001L311.05910069444445,119.9795585738288L312.16117013888885,146.70645785331726L313.2632395833333,132.39797988202838L314.91634375,166.89408565892114L315.1918611111111,146.89074461989935L316.5694479166667,156.2349151108L317.12048263888886,119.02888753679065L318.2225520833333,138.10762384202746L319.0491041666667,164.61340896288556L319.60013888888886,139.13549507988824L321.5287604166667,160.88030985991162L322.3553125,150.0062171485689L323.7328993055556,140.27761862013074L324.0084166666666,124.28217144807178L325.11048611111113,132.84190600448187L326.2125555555556,145.44124343660144L328.41669444444443,150.31501795185937L328.96772916666663,152.23870613839892L329.5187638888889,152.6807596815957L329.79428125000004,137.9604141447279L331.1718680555556,151.29297871059845L333.37600694444444,141.89617625872296L334.75359375000005,166.65761635038587L335.3046284722222,151.00053176614972L336.1311805555556,157.98722484376697L336.40669791666664,147.61091363430023L336.9577326388889,159.01037718190088L337.5087673611111,150.37404165003034L337.7842847222222,176.2774929271804L338.33531944444445,122.05267858505249L338.6108368055556,148.30102150970038L339.16187152777775,135.63512012693616L339.4373888888889,138.7398315668106L339.71290625,155.18532195356158L341.0904930555555,174.31793860594433L342.1925625,164.2347235017353L342.7435972222222,116.23449993133545L346.0498055555555,148.21355957455108L348.25394444444447,147.6105640861723L348.5294618055555,143.68426473935443L349.63153124999997,149.60321312480505L350.4580833333333,165.25408074590894L351.2846354166667,151.8306836022271L351.5601527777778,144.0958576599757L352.11118749999997,179.89723856581583L352.6622222222222,163.9247492154439L353.2132569444445,164.73317913214368L354.8663611111111,156.48933621247608L359.27463888888894,176.64949952231512L359.55015625,154.32513394620685L359.8256736111111,175.5724418693119L360.10119097222224,145.91835166348352L360.92774305555554,163.5503332349989L363.1318819444444,165.17548235257465L363.40739930555554,141.47554502222272L365.88705555555555,160.75222543875378L366.989125,165.51953758133783L367.2646423611111,173.13893773820666L367.81567708333336,173.14883744054373L368.0911944444444,158.21248364448547L368.9177465277778,174.8961036933793L369.19326388888885,174.88520528210535L370.01981597222226,155.54945123195648L370.5708506944444,168.11943910519284L372.2239548611111,173.41294601890775L373.8770590277778,148.60348051124151L374.7036111111111,136.20133815871344L375.2546458333333,177.71178876691397L376.3567152777778,171.55946707063254L377.4587847222222,167.54856459299725L377.7343020833333,166.91605725553302L381.31602777777783,178.69602890809375L381.8670625,185.05072648657693L383.5201666666667,172.16607039504584L384.34671875,171.0179670850436L384.89775347222223,163.4302135176129L385.17327083333333,165.45806704627142L385.9998229166667,180.29144146707324L386.27534027777773,151.12492096424103L387.65292708333334,160.08648606141406L387.92844444444444,173.98304653167725L388.4794791666667,167.72307649585935L388.75499652777773,155.58977410528394L390.68361805555554,171.35948808987933L390.9591354166667,188.50301360421713L391.5101701388889,166.0401146146986L393.4387916666667,149.6166707277298L393.9898263888889,161.92421037620971L394.26534375,186.0193243490325L394.54086111111116,191.3393220172988L397.2960347222222,174.34501610199612L399.22465625,166.32057705190448L400.0512083333333,181.37382972902725L400.87776041666666,195.29457143942517L402.2553472222222,177.67021750741537L403.08189930555557,188.57804161310196L404.18396875,193.74690965149136L404.4594861111111,154.9320243994395L407.2146597222222,186.89009867111844L407.4901770833333,177.71845514906778L408.3167291666666,184.59407930903967L409.4187986111111,177.8856764766905L410.5208680555556,176.22919286621942L411.0719027777778,172.34707390599783L411.62293750000003,165.25088487731085L412.17397222222223,177.07235288619995L413.0005243055556,189.51425633827847L413.8270763888889,186.8098773757617L414.10259375000004,179.53817773527572L414.3781111111111,190.4855631987254L414.92914583333334,176.29502026902304L416.8577673611111,185.18100806739596L417.40880208333334,186.1878190305498L419.3374236111111,179.99096739954422L420.43949305555554,180.15217150582208L420.9905277777778,200.84715593523447L422.91914930555555,191.22725439071655L423.19466666666665,198.9114707575904L423.4701840277778,171.05453231599597L425.12328819444446,198.48381110694675L425.9498402777778,193.2709998753336L428.7050138888889,185.7702213724454L429.2560486111111,169.65009787347583L429.80708333333337,179.87400609917114L430.3581180555555,214.1233184138934L432.56225694444447,186.77975381745233L432.8377743055555,184.21970078017978L433.11329166666667,183.89407173130246L433.38880902777777,189.16575685474606L434.4908784722222,200.19653451442719L435.3174305555555,187.35564684205588L436.9705347222222,183.94596714443634L437.2460520833334,184.49168667528363L438.3481215277778,176.6992227435112L440.2767430555555,194.57372829649182L441.3788125,188.87008907397592L441.6543298611111,187.79117132557764L441.92984722222224,199.9749334851901L442.75639930555553,198.8253196279208L443.3074340277778,204.03025354279413L443.85846875,182.03863281673858L444.1339861111111,206.06795683834287L444.68502083333334,202.13655159208508L446.6136423611111,205.32624067862832L446.88915972222225,199.4405243330532L447.71571180555554,190.54699628220663L447.9912291666667,201.45037613312405L448.54226388888884,158.72746790779962L448.81778125,177.97987969716388L449.64433333333335,165.0232541428672L450.19536805555555,214.00602004925412L451.5729548611111,215.7906505001916L453.50157638888885,203.32400403420132L454.8791631944444,258.82498113976584L455.15468055555556,204.53707336054907L457.90985416666666,206.40314852529104L458.46088888888886,209.73079676760568L459.28744097222227,206.22062198321026L461.2160625,194.61602361996972L461.7670972222223,186.39696116579904L462.0426145833333,199.85461402601663L462.3181319444444,200.6694481637743L463.42020138888887,181.0326832400428L463.9712361111111,186.8593134681384L465.3488229166667,192.0301539566782L466.45089236111113,191.109968509939L466.72640972222223,203.00857430034216L467.5529618055556,199.45112313164606L469.75710069444443,210.11445080571707L470.0326180555556,212.16744683186215L470.3081354166667,200.34343211518393L472.23675694444444,199.5994438926379L473.3388263888889,212.7629644870758L474.71641319444444,214.69968582524194L475.2674479166667,216.06248658895493L476.36951736111115,202.9206629461712L480.50227777777775,203.12095402346716L481.0533125,213.45965135759775L481.8798645833333,220.9210058252017L482.15538194444446,223.832654343711L482.43089930555556,198.52308533589047L482.70641666666666,206.17862627241345L483.2574513888889,208.1833721730444L484.0840034722222,214.47703615162106L484.91055555555556,200.2203412387106L485.18607291666666,208.23099810547296L486.8391770833333,207.30820353163614L487.94124652777776,211.74312037229538L489.3188333333333,214.5049250986841L489.5943506944445,205.6465890540017L489.86986805555557,226.5914254917039L490.9719375,213.4835829204983L491.7984895833333,199.52069569296305L493.1760763888889,185.87826919555664L494.0026284722222,222.33367961645126L495.3802152777778,205.77870576249228L495.6557326388889,201.82421785593033L496.48228472222223,217.7085836264822L497.5843541666666,201.30078201823767L498.6864236111111,192.93314912584094L500.06401041666663,221.84225240018634L501.44159722222224,198.88766403330698L501.9926319444445,208.7068329784605L502.8191840277778,205.96278030342523L503.0947013888889,216.93600736061734L505.5743576388889,215.90538967318003L508.32953124999995,204.3988520436817L509.15608333333336,187.65922939115103L510.80918749999995,193.65170772208108L512.4622916666667,224.6670132411851L513.5643611111111,202.66421945889795L513.8398784722223,206.6185201075342L514.1153958333333,218.63571010033291L514.6664305555555,222.151864654488L516.5950520833334,217.1329028275278L516.8705694444444,222.75376156303616L517.9726388888889,203.4538112282753L519.6257430555555,229.00526754061383L520.7278125,206.86195541090433L521.5543645833334,214.25546009010736L522.6564340277778,220.66333891948068L528.16678125,218.40852878491086L529.2688506944444,208.25451770093707L532.0240243055556,227.81478152010175L533.4016111111112,238.61167403062188L533.9526458333333,229.00474321842194L534.2281631944444,209.23287794325086L534.5036805555555,232.1857560210758L534.7791979166667,231.8980903956625L536.9833368055556,226.65077377027933L538.6364409722222,224.0634310113059L539.1874756944444,233.9051333268484L539.4629930555556,242.20941062106027L540.0140277777778,225.2837160097228L540.2895451388889,225.023489912351L543.5957534722222,218.9422887762388L543.8712708333333,216.21091970470218L544.4223055555556,238.67507956425345L546.3509270833333,226.2035394244724L547.4529965277777,230.57773476176794L548.2795486111112,223.03296313020917L549.3816180555556,218.52254389392004L550.4836875,224.33541690640982L550.7592048611111,211.47571605443954L551.5857569444445,227.48357218503952L553.5143784722222,223.51357932223215L553.7898958333333,231.13049519062042L554.0654131944444,206.59603667259216L554.6164479166667,241.16790700621073L555.443,231.07840003569925L558.7492083333333,230.16715303394528L560.4023125,236.7877568668789L561.2288645833333,231.49099166525735L561.5043819444445,210.47133944431943L562.3309340277777,229.2630218333668L564.2595555555556,233.76099465952979L565.0861076388888,242.28748469220267L565.361625,230.27883366081448L568.1167986111111,235.1267915500535L568.9433506944445,208.28645141919458L569.2188680555556,233.3871404528618L569.7699027777778,242.64515981409284L570.8719722222222,231.2280940214793L571.1474895833334,248.14956908755835L571.9740416666666,232.3287212053935L573.0761111111111,219.56195022000207L574.4536979166667,222.62608910931482L577.2088715277778,233.02548297908572L577.4843888888889,235.41789023743735L577.7599062500001,242.6407904624939L578.8619756944445,216.04693169726266L579.4130104166667,221.81627348396512L581.6171493055556,227.39216534958945L586.0254270833334,239.02439049879706L587.1274965277778,247.27020586861505L588.2295659722222,239.28094634082584L588.7806006944445,247.62703208790884L589.6071527777777,225.363400499026L591.2602569444444,246.7153731187185L591.5357743055555,255.12558846341238L593.4643958333334,238.95098539193475L595.6685347222223,238.91971331834793L596.7706041666667,244.26613932185705L597.872673611111,240.3016268743409L598.9747430555556,238.12003458870782L599.8012951388888,231.98108310831918L600.3523298611111,240.6789391107029L602.0054340277778,234.64962090386285L602.2809513888889,248.13189193937512L602.55646875,241.13574857844247L602.8319861111111,239.62129386266076L604.2095729166667,249.27633747789594L604.4850902777778,244.21697787443793L604.7606076388888,251.65824580854837L606.6892291666667,240.010053800212L607.2402638888889,258.3334166010221L608.0668159722222,241.12692248821259L608.6178506944444,226.08147222465936L608.8933680555556,245.32345998949472L609.1688854166666,257.4008846150504L609.4444027777778,252.86509817176398L611.0975069444444,242.10921514696543L612.1995763888889,239.34602471192682L612.47509375,242.1481772793664L613.0261284722222,242.56619938876895L614.4037152777778,237.06256411472953L616.6078541666667,240.45549046993256L616.8833715277777,250.56817997164194L617.9854409722222,244.16835323307248L618.5364756944444,239.2984736826685L619.9140625,229.37309204207526L620.7406145833334,245.25527313682767L621.0161319444445,250.66892473565207L624.0468229166667,239.04588770866394L626.8019965277778,256.4227490822474L627.35303125,248.65688825978174L628.1795833333334,234.11391343010797L629.2816527777777,228.581028468079L629.5571701388889,255.4252510799302L629.8326875,250.501503666242L630.6592395833334,269.7386102411482L631.4857916666666,248.26710464557016L632.5878611111111,257.24901843733255L633.6899305555555,252.24852024184332L634.2409652777777,252.3989757431878L638.9247604166667,241.57959979772568L640.0268298611112,257.48959493637085L640.8533819444444,253.61742561393316L641.1288993055555,257.28323670228326L641.955451388889,256.11459743976593L642.5064861111111,253.31827483574546L643.6085555555555,258.13442384534414L644.1595902777777,259.07233637571335L646.6392465277778,247.60854348871442L647.7413159722223,249.65121536122427L650.2209722222223,250.30468310250177L651.5985590277778,260.3175641298294L651.8740763888889,254.33841856320703L652.14959375,254.57066832648383L654.0782152777778,257.24417469898856L655.7313194444444,262.43420288297864L656.5578715277778,250.8142493698332L657.3844236111112,250.49914421637857L657.9354583333333,238.0004017419285L659.8640798611111,241.44054206212365L660.9661493055555,255.10636331637704L661.7927013888889,253.89459231164722L663.4458055555556,266.45155951711865L663.7213229166666,282.88563341233464L663.9968402777778,255.07846188545227L664.8233923611111,272.1287079850832L666.2009791666667,269.65253401464884L667.8540833333333,261.8457011580467L668.1296006944444,275.76517575648097L670.8847743055555,252.66053761376276L671.1602916666667,255.97110793325635L672.2623611111112,261.9651092953152L672.5378784722221,249.28587514824335L672.8133958333333,261.6190941002634L673.6399479166666,276.94672333200776L674.190982638889,250.8243363300959L675.8440868055555,263.984561185042L676.6706388888889,259.9938825633791L677.7727083333333,259.14038590590155L678.0482256944445,252.0085679358906L678.5992604166667,268.40093949106006L678.8747777777778,268.3107560740577L679.4258125,254.57607383860483L682.4565034722222,260.3415830797619L683.0075381944445,247.2122183309661L685.2116770833333,261.2077633407381L685.4871944444444,274.9214227530691L686.3137465277778,273.8449518415663L693.4771979166667,268.792221168677L694.5792673611111,250.64454375372992L695.9568541666667,264.639177441597L697.3344409722222,261.4632955061065L698.4365104166667,257.022074315283L698.7120277777778,262.4052777753936L699.8140972222221,279.96543969048395L700.6406493055556,265.9564994970957L701.7427187499999,265.3562005228466L703.6713402777779,268.7028991381327L703.9468576388889,260.24608153767053L704.2223749999999,265.8441322578324L707.2530659722222,247.02698279089395L707.5285833333334,278.5804176529249L708.0796180555556,279.75185954239635L709.1816875,252.38912597629758L710.5592743055556,278.7561280065113L712.7634131944444,265.61635171704825L713.3144479166667,270.76621931791306L713.8654826388889,274.4744006329113L715.5185868055556,265.61650152338876L715.7941041666667,271.18917255269156L716.3451388888889,271.8972571889559L717.1716909722222,283.9664736754364L717.7227256944444,259.9715863863627L718.8247951388888,264.75065832667883L719.1003125,271.3777163161172L720.2023819444445,278.1043455865648L720.4778993055556,264.4064408077134L721.5799687499999,276.4542599552208L721.8554861111111,277.5209060675568L722.6820381944444,268.59364038043555L722.9575555555556,274.5285181734297L723.7841076388888,272.64416039321156L726.2637638888888,261.9554717540741L727.0903159722222,260.1608417299059L729.8454895833333,269.29701860083475L732.6006631944445,293.98075913720663L733.4272152777777,275.4188297390938L735.3558368055556,281.263592776325L737.2844583333333,258.3871221741041L740.3151493055556,276.61880973643724L740.8661840277778,281.7037113209566L742.2437708333333,269.6539072394371L743.6213576388889,271.16014757421283L744.1723923611111,265.1989288330078L744.7234270833334,280.9961697326766L746.37653125,262.8291298482153L746.9275659722223,292.67583355638715L747.7541180555556,275.5217030015257L748.0296354166667,284.2431971960598L749.6827395833334,274.6149189803335L750.7848090277777,280.1090415517489L753.8154999999999,284.60252642962666L754.6420520833334,274.45129300488367L755.4686041666666,283.456170860264L756.0196388888888,269.7443528175354L759.6013645833334,282.3328917092747L761.5299861111112,285.5681593749258L762.3565381944445,243.64860013458463L764.8361944444445,272.584687276019L766.21378125,283.1696100566122L769.2444722222223,295.2617593970564L771.4486111111112,289.3958362142245L772.8261979166666,274.2698338329792L773.1017152777778,275.3302255305979L774.4793020833333,286.49233965741263L775.8568888888889,282.35001956754263L776.6834409722222,276.66634203990304L778.0610277777778,266.9865803784794L780.2651666666666,282.5875250365999L781.09171875,292.34893115361535L782.4693055555555,276.9144775172075L783.0203402777778,280.66391175323065L783.2958576388888,277.07912716931764L783.571375,282.1451906065146L784.1224097222223,285.8795817891757L785.7755138888889,289.55949964125955L787.1531006944443,284.21854156917993L787.7041354166666,299.326392415497L791.5613784722223,283.3720109065374L792.9389652777778,286.7012258734968L794.5920694444444,287.70558999975526L795.9696562500001,287.4034118851026L796.5206909722223,280.2987587981754L797.0717256944444,274.2113282150692L797.3472430555555,279.98868464099036L798.1737951388889,296.5313306815094L798.4493125,287.06850108504295L803.1331076388889,295.1365774737464L806.7148333333332,301.1105359958278L807.5413854166667,303.00058641698627L808.6434548611112,292.3244440588686L808.9189722222222,303.31348192691803L809.7455243055555,273.7468661401007L810.2965590277778,288.5725130505032L810.572076388889,290.06998347242677L813.8782847222222,301.0761679245366L816.0824236111112,283.19607584344016L816.6334583333332,291.3812945485115L816.9089756944444,284.6896513005098L818.0110451388889,286.591948390007L819.1131145833333,281.8364210128784L820.2151840277778,294.7613438003593L822.1438055555556,289.91420984599324L822.4193229166667,287.9107934766346L823.5213923611112,300.6528339319759L824.6234618055555,291.0913506183359L826.0010486111112,303.79301826490297L826.5520833333333,289.4804143773185L827.3786354166666,292.89573678043155L827.9296701388889,278.82784779204263L828.2051875000001,287.93063033289377L828.7562222222222,297.24917145570123L829.3072569444444,289.03854185011653L830.1338090277778,298.0485755403837L831.2358784722221,287.81209606594507L831.5113958333333,279.9235188828574L831.7869131944444,284.0118712385496L832.3379479166666,299.69000361363095L832.8889826388889,293.34051180548136L834.2665694444444,296.35208739505873L834.8176041666667,306.5293621553315L835.0931215277778,296.28974298967256L837.0217430555556,301.82605477174127L837.5727777777778,289.65030725134744L838.399329861111,293.6550239755048L844.4607118055555,295.56994224919214L844.7362291666667,293.0458427336481L845.2872638888889,283.2386895053917L847.2158854166667,307.5948784781827L847.766920138889,288.8861763179302L848.0424375000001,291.6003114183744L849.4200243055556,299.83090896076624L849.6955416666667,293.6359423928791L849.9710590277779,302.23065672980414L850.7976111111111,295.64836586846246L851.0731284722222,286.5099918378724L851.8996805555556,283.2728828026189L853.8283020833333,305.5957128637367L854.3793368055556,304.3624259233475L854.9303715277778,301.13000457816656L855.756923611111,299.9496367275715L858.7876145833333,302.06964612338277L859.0631319444444,297.06794947716924L859.3386493055556,287.60953916774855L861.5427881944445,291.0860387351778L861.8183055555555,295.90350479218694L863.1958923611111,296.5273483296236L863.4714097222222,294.8488806386789L863.7469270833333,296.35741176207864L864.0224444444444,298.16034355428485L864.5734791666667,300.00645702415045L864.8489965277778,304.02639157573384L865.1245138888889,300.205337425073L865.9510659722222,299.44795401891076L868.9817569444444,296.09064412117004L870.634861111111,299.30975142783586L871.1858958333333,303.25832822587756L873.3900347222223,284.08790419830217L873.6655520833333,299.3655480477545L873.9410694444445,304.21509138743085L874.4921041666668,311.26674423946275L876.4207256944445,294.27991615732515L877.2472777777779,298.72917071315976L877.7983125,267.1006079713503L878.6248645833333,310.2215953369935L879.1758993055556,304.61333281795186L879.7269340277778,301.5729694432682L882.2065902777779,304.2072390384144L883.3086597222222,302.31265697545473L883.8596944444445,290.02026649316156L884.4107291666667,283.40171001354855L884.9617638888889,293.3275972505411L885.2372812499999,299.86545804805223L886.3393506944444,281.1496837801403L886.6148680555556,300.4113461110327L886.8903854166667,313.28892385297354L888.2679722222222,297.6887469523483L889.6455590277777,305.07263905803364L889.9210763888889,294.6416547762023L891.0231458333334,300.50693504015607L892.4007326388888,306.50111741820973L892.67625,302.87878762020006L892.9517673611111,313.06579355067674L893.2272847222222,294.3871962229411L893.7783194444445,303.558440261417L894.0538368055556,294.73304288585985L896.2579756944444,298.74267200960054L896.5334930555556,305.38922979103194L896.8090104166668,300.73700636956426L898.1865972222222,315.46084114578036L898.4621145833333,297.00718428028955L899.5641840277777,306.18719823161763L900.3907361111111,305.91920717226134L901.2172881944444,316.6786605815093L901.7683229166668,302.42581693993674L902.3193576388888,296.34336741765344L903.1459097222222,289.8626577390565L903.4214270833334,307.71595321098965L904.7990138888889,313.0392528606786L905.07453125,300.157773911953L908.3807395833334,297.6934159166283L908.9317743055556,313.2176472445329L912.5135,301.18268023265733L912.7890173611111,309.1327404346731L915.8197083333333,300.98187107510034L916.0952256944445,300.5090323289236L918.5748819444445,303.531500087844L919.1259166666666,311.78270224399034L919.6769513888888,307.80925135148897L920.5035034722223,309.84116213520366L921.3300555555555,299.6712403694789L922.1566076388889,307.60407284233304L923.2586770833334,301.06588746441736L923.5341944444446,311.4850495292081L924.91178125,290.5336965156926L925.4628159722223,309.7934051222271L926.0138506944445,293.9711528056198L926.2893680555555,310.19736416141194L927.3914375,315.84200465348033L927.9424722222222,308.2925702995724L928.7690243055555,300.2078404393461L930.9731631944445,313.11408112777605L931.5241979166666,314.6882274283303L931.7997152777778,310.59992500808505L932.35075,305.299071341753L933.7283368055555,307.08717854817706L934.2793715277777,311.0498309002982L934.83040625,315.58531148897276L935.3814409722222,313.8669204082754L937.5855798611111,307.2217358516322L939.78971875,302.5686135921213L940.0652361111112,309.19856159554587L940.6162708333334,302.92245616846617L940.8917881944444,312.2389686637455L941.7183402777778,299.3759595884217L942.269375,301.6531657709016L942.5448923611111,311.9436067375872L943.3714444444444,310.1406811873118L945.0245486111112,311.39809943238896L946.1266180555555,301.0874970290396L946.4021354166666,319.14194496472675L950.2593784722222,303.4823074307707L951.0859305555555,313.0440154539214L951.912482638889,309.08155035972595L952.7390347222223,293.00356613596284L953.8411041666667,304.535839246379L954.66765625,315.31438672211436L954.9431736111111,319.6470544934273L955.2186909722222,321.7640677624279L956.8717951388888,305.12266189191075L958.2493819444444,325.17673734492723L958.5248993055556,315.4539063605997L959.9024861111111,305.32497535480394L960.4535208333333,310.6854082511531L962.3821423611112,314.34677508473396L963.2086944444444,315.98492614428204L963.7597291666666,314.55954378181036L964.0352465277778,307.5189141796695L964.5862812500001,317.27696213788454L964.8617986111111,307.65060019493103L965.4128333333333,323.20933691660565L966.2393854166667,303.4903033441967L967.0659375,323.52111512091426L969.2700763888889,304.6690732604927L969.5455937500001,308.8810907502969L970.9231805555555,327.26111779941454L972.02525,315.4510725239913L972.3007673611112,305.82049103577936L973.6783541666666,318.61001385913954L977.2600798611112,315.61522282163304L977.5355972222221,304.90626663300725L977.8111145833333,313.523220969571L978.0866319444444,307.3502072725031L980.5662881944444,314.01881155371666L982.4949097222221,327.41675410336916L983.3214618055555,306.41388019257124L984.6990486111112,326.3739646507634L985.5256006944444,296.9763304160701L987.1787048611112,315.5596758789486L987.4542222222221,318.1364510489835L987.7297395833333,308.8679202761915L989.107326388889,303.8046095305019L990.2093958333332,313.3674972785844L990.7604305555556,311.7747063305643L991.5869826388889,322.1699930098322L992.6890520833333,327.04126763178243L992.9645694444445,315.83244825734033L993.2400868055555,316.65831812885074L993.7911215277778,320.53652339842586L994.8931909722222,308.57041736774977L995.1687083333333,309.25957022772894L995.7197430555556,327.7784053352144L995.9952604166667,303.84770382112924L997.097329861111,320.3374182879925L997.3728472222222,311.0771331058608L997.6483645833333,310.8151842355728L999.025951388889,306.86881083912317L999.5769861111111,317.2723992864291L1002.3321597222222,318.39415540628966L1002.6076770833333,319.1421634323067L1003.7097465277778,322.75337635146246L1004.26078125,316.46898164020644L1005.6383680555556,319.18317915995914L1006.1894027777778,316.73759065071744L1007.015954861111,319.4663318693638L1007.5669895833333,315.8789506422149L1010.3221631944444,311.8180253307025L1011.1487152777778,328.6364804489745L1011.975267361111,315.9663127064705L1013.3528541666667,309.2922841873434L1014.1794062499999,308.2207319173548L1015.8325104166667,317.7269928687149L1016.6590624999999,321.6748643285698L1017.2100972222222,313.34972650143834L1018.5876840277779,312.230554540952L1019.13871875,317.62052425411014L1020.2407881944445,321.070963760217L1020.5163055555556,324.6977440549268L1022.7204444444444,332.4560615039534L1023.8225138888889,323.7407561838627L1024.0980312499998,319.72556549972956L1024.9245833333334,311.8528927564621L1025.4756180555555,320.6016329791811L1026.0266527777778,315.6711255543762L1027.4042395833333,329.6480540053712L1028.506309027778,318.2464401125908L1029.6083784722223,321.15363813440007L1030.7104479166667,314.182893190119L1031.2614826388888,318.2912009987566L1032.9145868055555,323.38456664151613L1036.220795138889,318.19247862034376L1036.771829861111,315.4258551233345L1037.3228645833333,321.73300167255934L1038.1494166666666,325.61806058221396L1038.97596875,319.12538512216673L1039.8025208333333,309.50784302751225L1040.0780381944444,336.32928883367117L1041.455625,317.22444253166515L1043.6597638888888,323.21407454212505L1045.3128680555556,329.22917987240686L1046.139420138889,325.46246485080985L1046.4149375,319.21372092763585L1048.6190763888887,313.79436420400936L1050.8232152777778,317.85472149981393L1053.3028715277778,330.48468808664217L1054.4049409722222,329.6566148135397L1056.3335625,318.3421164287461L1057.9866666666667,320.703076839447L1058.5377013888888,322.31182216273413L1059.3642534722221,323.578809287813L1059.9152881944444,319.8506225844224L1061.5683923611111,319.2067611747318L1062.1194270833334,325.5319469041294L1062.3949444444445,321.05193211303816L1064.0480486111112,326.22586547831696L1064.5990833333333,326.3383887658517L1064.8746006944446,325.8991222447819L1065.1501180555556,318.18325928846997L1066.2521875,318.33639882008237L1066.527704861111,314.6859616074297L1066.8032222222223,319.6871339314514L1067.3542569444444,321.07249303327666L1068.1808090277777,321.3287430206935L1068.73184375,319.8012239436309L1070.1094305555557,325.93364324337904L1070.3849479166665,327.62498179574806L1071.2115,325.72465715640124L1072.5890868055556,330.2541642172469L1072.8646041666666,330.8842808951934L1073.69115625,319.8754280176428L1075.0687430555556,324.25853683220015L1075.6197777777777,332.80167721543046L1076.446329861111,334.6179885864258L1076.7218472222223,329.76123269564573L1076.9973645833334,323.6952150563399L1077.8239166666667,326.4940906100803L1078.65046875,329.452400682701L1079.4770208333334,333.10249458915655L1080.5790902777778,324.2275081939167L1081.6811597222222,332.9945778465933L1082.2321944444445,328.9549531241258L1083.60978125,319.3641639451186L1083.8852986111112,321.1690244939592L1084.4363333333333,324.77166412108477L1085.2628854166667,320.79941480027304L1086.6404722222223,326.6611496475008L1087.1915069444444,326.43177429338294L1089.3956458333334,324.9424308654335L1089.6711631944445,340.1295355078247L1090.7732326388889,323.0371907055378L1091.3242673611112,334.02971157100467L1092.7018541666666,322.3014231059286L1093.252888888889,323.8763184381856L1093.803923611111,327.9877097606659L1094.3549583333333,328.6995301925474L1095.1815104166667,311.50287024180096L1096.5590972222224,321.72958733638126L1096.8346145833334,333.5094903277026L1097.1101319444444,327.97274161047403L1097.3856493055555,322.07014708386527L1097.6611666666665,334.3522633479701L1097.9366840277778,329.3174376537402L1099.0387534722222,323.97959118419226L1099.5897881944443,323.4788197974364L1100.1408229166666,334.04520716435377L1100.967375,328.58913852439986L1101.7939270833333,334.4133780929777L1102.0694444444443,325.0611367854807L1102.8959965277777,325.69888422389823L1105.6511701388888,328.0875556866328L1105.9266875,331.33054462075233L1107.3042743055555,335.7321139458153L1107.5797916666666,328.89318297637834L1109.2328958333335,327.9508823686176L1110.610482638889,336.56225329803095L1111.7125520833333,323.31961310903233L1111.9880694444444,323.2649400366677L1112.8146215277777,334.48999467326536L1113.36565625,329.8516470640898L1113.641173611111,329.005924731493L1114.1922083333332,324.34267806013423L1115.5697951388888,329.7613825019863L1115.8453125,329.76060538159476L1116.9473819444445,323.3212172852622L1118.0494513888889,326.6655439668232L1118.6004861111112,324.04104923539694L1119.4270381944443,322.62814449270564L1120.2535902777777,333.77915110356275L1121.0801423611113,337.5671448674467L1122.1822118055554,327.71712830000456L1122.7332465277777,325.5367906424734L1123.008763888889,334.2718111011717L1123.8353159722224,320.98340195417404L1124.1108333333332,325.51988749371634L1125.2129027777778,335.3784523854653L1126.0394548611112,323.42671215865346L1126.3149722222222,324.60121883617506L1126.5904895833332,325.58261577785015L1127.1415243055555,328.43279064032765L1129.3456631944443,340.21267490585643" style="fill: none;" fill="none"></path></g></g></g></g></g></g><g transform="translate(41, 377)" clip-path="url(#clip_1)"><clipPath id="clip_1"><rect width="1239" height="23"></rect></clipPath><g><g><line x1="0" y1="0" x2="0" y2="5" style="visibility: inherit;" fill="rgb(0, 0, 0)" stroke="rgb(204, 204, 204)" stroke-width="1px"></line><line x1="137.75868055555554" y1="0" x2="137.75868055555554" y2="5" style="visibility: inherit;" fill="rgb(0, 0, 0)" stroke="rgb(204, 204, 204)" stroke-width="1px"></line><line x1="275.5173611111111" y1="0" x2="275.5173611111111" y2="5" style="visibility: inherit;" fill="rgb(0, 0, 0)" stroke="rgb(204, 204, 204)" stroke-width="1px"></line><line x1="413.27604166666663" y1="0" x2="413.27604166666663" y2="5" style="visibility: inherit;" fill="rgb(0, 0, 0)" stroke="rgb(204, 204, 204)" stroke-width="1px"></line><line x1="551.0347222222222" y1="0" x2="551.0347222222222" y2="5" style="visibility: inherit;" fill="rgb(0, 0, 0)" stroke="rgb(204, 204, 204)" stroke-width="1px"></line><line x1="688.7934027777778" y1="0" x2="688.7934027777778" y2="5" style="visibility: inherit;" fill="rgb(0, 0, 0)" stroke="rgb(204, 204, 204)" stroke-width="1px"></line><line x1="826.5520833333333" y1="0" x2="826.5520833333333" y2="5" style="visibility: inherit;" fill="rgb(0, 0, 0)" stroke="rgb(204, 204, 204)" stroke-width="1px"></line><line x1="964.3107638888889" y1="0" x2="964.3107638888889" y2="5" style="visibility: inherit;" fill="rgb(0, 0, 0)" stroke="rgb(204, 204, 204)" stroke-width="1px"></line><line x1="1102.0694444444443" y1="0" x2="1102.0694444444443" y2="5" style="visibility: inherit;" fill="rgb(0, 0, 0)" stroke="rgb(204, 204, 204)" stroke-width="1px"></line><line x1="1239.828125" y1="0" x2="1239.828125" y2="5" style="visibility: inherit;" fill="rgb(0, 0, 0)" stroke="rgb(204, 204, 204)" stroke-width="1px"></line></g><g transform="translate(0, 8)"><text x="0" y="0" dx="0em" dy="0.95em" style="text-anchor: middle; visibility: hidden; font-family: Roboto, sans-serif; font-size: 12px; font-weight: 200;" fill="rgb(33, 33, 33)" stroke="none" stroke-width="1px">-500</text><text x="137.75868055555554" y="0" dx="0em" dy="0.95em" style="text-anchor: middle; visibility: inherit; font-family: Roboto, sans-serif; font-size: 12px; font-weight: 200;" fill="rgb(33, 33, 33)" stroke="none" stroke-width="1px">0</text><text x="275.5173611111111" y="0" dx="0em" dy="0.95em" style="text-anchor: middle; visibility: inherit; font-family: Roboto, sans-serif; font-size: 12px; font-weight: 200;" fill="rgb(33, 33, 33)" stroke="none" stroke-width="1px">500</text><text x="413.27604166666663" y="0" dx="0em" dy="0.95em" style="text-anchor: middle; visibility: inherit; font-family: Roboto, sans-serif; font-size: 12px; font-weight: 200;" fill="rgb(33, 33, 33)" stroke="none" stroke-width="1px">1k</text><text x="551.0347222222222" y="0" dx="0em" dy="0.95em" style="text-anchor: middle; visibility: inherit; font-family: Roboto, sans-serif; font-size: 12px; font-weight: 200;" fill="rgb(33, 33, 33)" stroke="none" stroke-width="1px">1.5k</text><text x="688.7934027777778" y="0" dx="0em" dy="0.95em" style="text-anchor: middle; visibility: inherit; font-family: Roboto, sans-serif; font-size: 12px; font-weight: 200;" fill="rgb(33, 33, 33)" stroke="none" stroke-width="1px">2k</text><text x="826.5520833333333" y="0" dx="0em" dy="0.95em" style="text-anchor: middle; visibility: inherit; font-family: Roboto, sans-serif; font-size: 12px; font-weight: 200;" fill="rgb(33, 33, 33)" stroke="none" stroke-width="1px">2.5k</text><text x="964.3107638888889" y="0" dx="0em" dy="0.95em" style="text-anchor: middle; visibility: inherit; font-family: Roboto, sans-serif; font-size: 12px; font-weight: 200;" fill="rgb(33, 33, 33)" stroke="none" stroke-width="1px">3k</text><text x="1102.0694444444443" y="0" dx="0em" dy="0.95em" style="text-anchor: middle; visibility: inherit; font-family: Roboto, sans-serif; font-size: 12px; font-weight: 200;" fill="rgb(33, 33, 33)" stroke="none" stroke-width="1px">3.5k</text><text x="1239.828125" y="0" dx="0em" dy="0.95em" style="text-anchor: middle; visibility: hidden; font-family: Roboto, sans-serif; font-size: 12px; font-weight: 200;" fill="rgb(33, 33, 33)" stroke="none" stroke-width="1px">4k</text></g><line x1="0" y1="0" x2="1239.828125" y2="0" fill="rgb(0, 0, 0)" stroke="rgb(204, 204, 204)" stroke-width="1px"></line></g></g></g></g></svg>